<svg width="868" height="710" viewBox="0 0 868 710" fill="none" xmlns="http://www.w3.org/2000/svg">
<g filter="url(#filter0_df_363_3584)">
<path d="M445.749 159.946C348.571 171.454 295.695 238.081 281.404 269.956C266.518 265.443 226.384 262.002 184.941 284.342C143.497 306.683 140.282 356.836 143.855 379.121C127.778 397.738 105.269 454.944 143.855 534.828C182.44 614.713 271.281 635.248 310.879 635.53C332.315 644.839 389.3 662.61 445.749 659.225C502.198 655.84 557.992 642.018 578.832 635.53C608.903 642.864 682.798 649.409 737.818 616.913C792.838 584.418 795.875 523.827 790.516 497.594C809.57 478.412 836.246 418.555 790.516 332.578C744.785 246.6 649.989 245.98 608.307 256.417C594.612 219.464 542.927 148.437 445.749 159.946Z" fill="url(#paint0_linear_363_3584)"/>
</g>
<g filter="url(#filter1_f_363_3584)">
<ellipse cx="472.675" cy="428.65" rx="264.381" ry="195.481" fill="#FEF0FF" fill-opacity="0.84"/>
</g>
<foreignObject x="115.1" y="151.248" width="708.116" height="515.849"><div xmlns="http://www.w3.org/1999/xhtml" style="backdrop-filter:blur(3.35px);clip-path:url(#bgblur_0_363_3584_clip_path);height:100%;width:100%"></div></foreignObject><g filter="url(#filter2_f_363_3584)" data-figma-bg-blur-radius="6.7">
<path d="M445.749 159.946C348.571 171.454 295.695 238.081 281.404 269.956C266.518 265.443 226.384 262.002 184.941 284.342C143.497 306.683 140.282 356.836 143.855 379.121C127.778 397.738 105.269 454.944 143.855 534.828C182.44 614.713 271.281 635.248 310.879 635.53C332.315 644.839 389.3 662.61 445.749 659.225C502.198 655.84 557.992 642.018 578.832 635.53C608.903 642.864 682.798 649.409 737.818 616.913C792.838 584.418 795.875 523.827 790.516 497.594C809.57 478.412 836.246 418.555 790.516 332.578C744.785 246.6 649.989 245.98 608.307 256.417C594.612 219.464 542.927 148.437 445.749 159.946Z" fill="url(#paint1_linear_363_3584)"/>
<path d="M445.749 159.946C348.571 171.454 295.695 238.081 281.404 269.956C266.518 265.443 226.384 262.002 184.941 284.342C143.497 306.683 140.282 356.836 143.855 379.121C127.778 397.738 105.269 454.944 143.855 534.828C182.44 614.713 271.281 635.248 310.879 635.53C332.315 644.839 389.3 662.61 445.749 659.225C502.198 655.84 557.992 642.018 578.832 635.53C608.903 642.864 682.798 649.409 737.818 616.913C792.838 584.418 795.875 523.827 790.516 497.594C809.57 478.412 836.246 418.555 790.516 332.578C744.785 246.6 649.989 245.98 608.307 256.417C594.612 219.464 542.927 148.437 445.749 159.946Z" stroke="#FFFBFB" stroke-opacity="0.5" stroke-width="1.5"/>
</g>
<g filter="url(#filter3_d_363_3584)">
<ellipse cx="333.34" cy="434.572" rx="26.7953" ry="25.3871" fill="#293B56"/>
</g>
<g filter="url(#filter4_d_363_3584)">
<ellipse cx="603.079" cy="434.572" rx="26.7953" ry="25.3871" fill="#293B56"/>
</g>
<g filter="url(#filter5_d_363_3584)">
<path d="M426.229 488.731C441.711 500.579 478.927 517.165 503.936 488.731" stroke="#293B56" stroke-width="3" stroke-linecap="round"/>
</g>
<g filter="url(#filter6_f_363_3584)">
<path d="M779.013 337.256C733.505 271.249 675.708 268.711 645.036 266.172C651.937 268.993 681.076 279.134 718.277 304.253C752.116 327.101 752.963 333.871 765.615 355.027C778.728 376.952 789.694 448.959 783.56 485.347C811.167 450.651 811.218 383.968 779.013 337.256Z" fill="white"/>
</g>
<g filter="url(#filter7_f_363_3584)">
<path d="M131.59 469.971C141.088 509.742 149.394 524.278 168.994 542.049C166.186 539.502 156.256 522.435 151.131 500.583C147.558 485.351 141.306 463.231 141.306 450.655C141.306 429.499 147.672 413.998 157.571 397.407C137.585 409.509 124.869 441.825 131.59 469.971Z" fill="white"/>
</g>
<foreignObject x="42.8922" y="43.1305" width="416.24" height="368.571"><div xmlns="http://www.w3.org/1999/xhtml" style="backdrop-filter:blur(6.8px);clip-path:url(#bgblur_1_363_3584_clip_path);height:100%;width:100%"></div></foreignObject><g filter="url(#filter8_f_363_3584)" data-figma-bg-blur-radius="13.6">
<ellipse cx="100.907" cy="238.234" rx="100.907" ry="238.234" transform="matrix(0.686964 0.726691 -0.762667 0.646792 363.386 0)" fill="#D9D9D9" fill-opacity="0.02"/>
</g>
<path d="M783.064 470.936C769.569 484.355 719.233 487.332 701.947 492.044L689.865 574.784L780.011 556.296C791.021 546.575 805.229 539.765 826.207 515.758C845.122 494.11 878.326 445.462 855.391 420.774C832.455 396.085 799.932 454.161 783.064 470.936Z" fill="url(#paint2_linear_363_3584)" stroke="url(#paint3_linear_363_3584)" stroke-linecap="round"/>
<g filter="url(#filter9_f_363_3584)">
<ellipse cx="695.793" cy="531.986" rx="51.2327" ry="55.4028" fill="url(#paint4_linear_363_3584)"/>
</g>
<defs>
<filter id="filter0_df_363_3584" x="107.15" y="143.299" width="732.016" height="539.748" filterUnits="userSpaceOnUse" color-interpolation-filters="sRGB">
<feFlood flood-opacity="0" result="BackgroundImageFix"/>
<feColorMatrix in="SourceAlpha" type="matrix" values="0 0 0 0 0 0 0 0 0 0 0 0 0 0 0 0 0 0 127 0" result="hardAlpha"/>
<feOffset dx="4" dy="4"/>
<feGaussianBlur stdDeviation="9.7"/>
<feComposite in2="hardAlpha" operator="out"/>
<feColorMatrix type="matrix" values="0 0 0 0 0.321569 0 0 0 0 0.509804 0 0 0 0 1 0 0 0 0.52 0"/>
<feBlend mode="normal" in2="BackgroundImageFix" result="effect1_dropShadow_363_3584"/>
<feBlend mode="normal" in="SourceGraphic" in2="effect1_dropShadow_363_3584" result="shape"/>
<feGaussianBlur stdDeviation="3.4" result="effect2_foregroundBlur_363_3584"/>
</filter>
<filter id="filter1_f_363_3584" x="123.094" y="147.969" width="699.162" height="561.361" filterUnits="userSpaceOnUse" color-interpolation-filters="sRGB">
<feFlood flood-opacity="0" result="BackgroundImageFix"/>
<feBlend mode="normal" in="SourceGraphic" in2="BackgroundImageFix" result="shape"/>
<feGaussianBlur stdDeviation="42.6" result="effect1_foregroundBlur_363_3584"/>
</filter>
<filter id="filter2_f_363_3584" x="115.1" y="151.248" width="708.116" height="515.849" filterUnits="userSpaceOnUse" color-interpolation-filters="sRGB">
<feFlood flood-opacity="0" result="BackgroundImageFix"/>
<feBlend mode="normal" in="SourceGraphic" in2="BackgroundImageFix" result="shape"/>
<feGaussianBlur stdDeviation="1.2" result="effect1_foregroundBlur_363_3584"/>
</filter>
<clipPath id="bgblur_0_363_3584_clip_path" transform="translate(-115.1 -151.248)"><path d="M445.749 159.946C348.571 171.454 295.695 238.081 281.404 269.956C266.518 265.443 226.384 262.002 184.941 284.342C143.497 306.683 140.282 356.836 143.855 379.121C127.778 397.738 105.269 454.944 143.855 534.828C182.44 614.713 271.281 635.248 310.879 635.53C332.315 644.839 389.3 662.61 445.749 659.225C502.198 655.84 557.992 642.018 578.832 635.53C608.903 642.864 682.798 649.409 737.818 616.913C792.838 584.418 795.875 523.827 790.516 497.594C809.57 478.412 836.246 418.555 790.516 332.578C744.785 246.6 649.989 245.98 608.307 256.417C594.612 219.464 542.927 148.437 445.749 159.946Z"/>
</clipPath><filter id="filter3_d_363_3584" x="297.545" y="398.185" width="73.5908" height="70.7744" filterUnits="userSpaceOnUse" color-interpolation-filters="sRGB">
<feFlood flood-opacity="0" result="BackgroundImageFix"/>
<feColorMatrix in="SourceAlpha" type="matrix" values="0 0 0 0 0 0 0 0 0 0 0 0 0 0 0 0 0 0 127 0" result="hardAlpha"/>
<feOffset dx="1" dy="-1"/>
<feGaussianBlur stdDeviation="5"/>
<feComposite in2="hardAlpha" operator="out"/>
<feColorMatrix type="matrix" values="0 0 0 0 0.321569 0 0 0 0 0.509804 0 0 0 0 1 0 0 0 1 0"/>
<feBlend mode="normal" in2="BackgroundImageFix" result="effect1_dropShadow_363_3584"/>
<feBlend mode="normal" in="SourceGraphic" in2="effect1_dropShadow_363_3584" result="shape"/>
</filter>
<filter id="filter4_d_363_3584" x="567.283" y="398.185" width="73.5908" height="70.7744" filterUnits="userSpaceOnUse" color-interpolation-filters="sRGB">
<feFlood flood-opacity="0" result="BackgroundImageFix"/>
<feColorMatrix in="SourceAlpha" type="matrix" values="0 0 0 0 0 0 0 0 0 0 0 0 0 0 0 0 0 0 127 0" result="hardAlpha"/>
<feOffset dx="1" dy="-1"/>
<feGaussianBlur stdDeviation="5"/>
<feComposite in2="hardAlpha" operator="out"/>
<feColorMatrix type="matrix" values="0 0 0 0 0.321569 0 0 0 0 0.509804 0 0 0 0 1 0 0 0 1 0"/>
<feBlend mode="normal" in2="BackgroundImageFix" result="effect1_dropShadow_363_3584"/>
<feBlend mode="normal" in="SourceGraphic" in2="effect1_dropShadow_363_3584" result="shape"/>
</filter>
<filter id="filter5_d_363_3584" x="420.729" y="483.231" width="88.7061" height="26.6992" filterUnits="userSpaceOnUse" color-interpolation-filters="sRGB">
<feFlood flood-opacity="0" result="BackgroundImageFix"/>
<feColorMatrix in="SourceAlpha" type="matrix" values="0 0 0 0 0 0 0 0 0 0 0 0 0 0 0 0 0 0 127 0" result="hardAlpha"/>
<feOffset/>
<feGaussianBlur stdDeviation="2"/>
<feComposite in2="hardAlpha" operator="out"/>
<feColorMatrix type="matrix" values="0 0 0 0 0.321569 0 0 0 0 0.509804 0 0 0 0 1 0 0 0 1 0"/>
<feBlend mode="normal" in2="BackgroundImageFix" result="effect1_dropShadow_363_3584"/>
<feBlend mode="normal" in="SourceGraphic" in2="effect1_dropShadow_363_3584" result="shape"/>
</filter>
<filter id="filter6_f_363_3584" x="627.236" y="248.372" width="194.312" height="254.775" filterUnits="userSpaceOnUse" color-interpolation-filters="sRGB">
<feFlood flood-opacity="0" result="BackgroundImageFix"/>
<feBlend mode="normal" in="SourceGraphic" in2="BackgroundImageFix" result="shape"/>
<feGaussianBlur stdDeviation="8.9" result="effect1_foregroundBlur_363_3584"/>
</filter>
<filter id="filter7_f_363_3584" x="117.578" y="385.207" width="63.6158" height="169.042" filterUnits="userSpaceOnUse" color-interpolation-filters="sRGB">
<feFlood flood-opacity="0" result="BackgroundImageFix"/>
<feBlend mode="normal" in="SourceGraphic" in2="BackgroundImageFix" result="shape"/>
<feGaussianBlur stdDeviation="6.1" result="effect1_foregroundBlur_363_3584"/>
</filter>
<filter id="filter8_f_363_3584" x="42.8922" y="43.1305" width="416.24" height="368.571" filterUnits="userSpaceOnUse" color-interpolation-filters="sRGB">
<feFlood flood-opacity="0" result="BackgroundImageFix"/>
<feBlend mode="normal" in="SourceGraphic" in2="BackgroundImageFix" result="shape"/>
<feGaussianBlur stdDeviation="6.35" result="effect1_foregroundBlur_363_3584"/>
</filter>
<clipPath id="bgblur_1_363_3584_clip_path" transform="translate(-42.8922 -43.1305)"><ellipse cx="100.907" cy="238.234" rx="100.907" ry="238.234" transform="matrix(0.686964 0.726691 -0.762667 0.646792 363.386 0)"/>
</clipPath><filter id="filter9_f_363_3584" x="628.261" y="460.283" width="135.066" height="143.406" filterUnits="userSpaceOnUse" color-interpolation-filters="sRGB">
<feFlood flood-opacity="0" result="BackgroundImageFix"/>
<feBlend mode="normal" in="SourceGraphic" in2="BackgroundImageFix" result="shape"/>
<feGaussianBlur stdDeviation="8.15" result="effect1_foregroundBlur_363_3584"/>
</filter>
<linearGradient id="paint0_linear_363_3584" x1="170.01" y1="306.954" x2="826.831" y2="650.028" gradientUnits="userSpaceOnUse">
<stop stop-color="#F7CAF7"/>
<stop offset="0.5" stop-color="#76A6E7"/>
<stop offset="1" stop-color="#AFB6EB"/>
</linearGradient>
<linearGradient id="paint1_linear_363_3584" x1="676.32" y1="290.712" x2="439.99" y2="651.306" gradientUnits="userSpaceOnUse">
<stop stop-color="#F4F5FF" stop-opacity="0.54"/>
<stop offset="0.32199" stop-color="#76A6E7" stop-opacity="0.15"/>
<stop offset="0.729308" stop-color="#9CBEEE" stop-opacity="0.164506"/>
<stop offset="1" stop-color="#F8F9FF" stop-opacity="0"/>
</linearGradient>
<linearGradient id="paint2_linear_363_3584" x1="764.918" y1="413.509" x2="775.995" y2="554.215" gradientUnits="userSpaceOnUse">
<stop offset="0.0751926" stop-color="#C7BBDF"/>
<stop offset="0.877124" stop-color="#A8BCEE"/>
</linearGradient>
<linearGradient id="paint3_linear_363_3584" x1="819.704" y1="416.537" x2="742.264" y2="516.702" gradientUnits="userSpaceOnUse">
<stop offset="0.231506" stop-color="#DADBF8"/>
<stop offset="1" stop-color="#A8BCEE"/>
</linearGradient>
<linearGradient id="paint4_linear_363_3584" x1="654.117" y1="492.415" x2="721.224" y2="576.229" gradientUnits="userSpaceOnUse">
<stop offset="0.000596258" stop-color="#CFD6F6"/>
<stop offset="1" stop-color="#ABBDED"/>
</linearGradient>
</defs>
</svg>
