<svg width="882" height="710" viewBox="0 0 882 710" fill="none" xmlns="http://www.w3.org/2000/svg">
<g filter="url(#filter0_df_412_203)">
<path d="M487.984 160.032C390.754 171.547 337.85 238.21 323.551 270.102C308.657 265.586 268.502 262.143 227.036 284.495C185.571 306.848 182.354 357.028 185.929 379.324C169.843 397.952 147.323 455.188 185.929 535.115C224.535 615.042 313.423 635.589 353.042 635.871C374.49 645.185 431.505 662.965 487.984 659.578C544.463 656.192 600.287 642.362 621.139 635.871C651.225 643.209 725.16 649.757 780.209 617.244C835.258 584.731 838.297 524.108 832.935 497.861C852 478.669 878.69 418.78 832.935 332.757C787.18 246.733 692.333 246.112 650.629 256.555C636.927 219.583 585.214 148.517 487.984 160.032Z" fill="url(#paint0_linear_412_203)"/>
</g>
<g filter="url(#filter1_f_412_203)">
<ellipse cx="514.924" cy="428.878" rx="264.522" ry="195.585" fill="#FEF0FF" fill-opacity="0.84"/>
</g>
<foreignObject x="157.162" y="151.334" width="708.486" height="516.117"><div xmlns="http://www.w3.org/1999/xhtml" style="backdrop-filter:blur(3.35px);clip-path:url(#bgblur_0_412_203_clip_path);height:100%;width:100%"></div></foreignObject><g filter="url(#filter2_f_412_203)" data-figma-bg-blur-radius="6.7">
<path d="M487.984 160.032C390.754 171.547 337.85 238.21 323.551 270.102C308.657 265.586 268.502 262.143 227.036 284.495C185.571 306.848 182.354 357.028 185.929 379.324C169.843 397.952 147.323 455.188 185.929 535.115C224.535 615.042 313.423 635.589 353.042 635.871C374.49 645.185 431.505 662.965 487.984 659.578C544.463 656.192 600.287 642.362 621.139 635.871C651.225 643.209 725.16 649.757 780.209 617.244C835.258 584.731 838.297 524.108 832.935 497.861C852 478.669 878.69 418.78 832.935 332.757C787.18 246.733 692.333 246.112 650.629 256.555C636.927 219.583 585.214 148.517 487.984 160.032Z" fill="url(#paint1_linear_412_203)"/>
<path d="M487.984 160.032C390.754 171.547 337.85 238.21 323.551 270.102C308.657 265.586 268.502 262.143 227.036 284.495C185.571 306.848 182.354 357.028 185.929 379.324C169.843 397.952 147.323 455.188 185.929 535.115C224.535 615.042 313.423 635.589 353.042 635.871C374.49 645.185 431.505 662.965 487.984 659.578C544.463 656.192 600.287 642.362 621.139 635.871C651.225 643.209 725.16 649.757 780.209 617.244C835.258 584.731 838.297 524.108 832.935 497.861C852 478.669 878.69 418.78 832.935 332.757C787.18 246.733 692.333 246.112 650.629 256.555C636.927 219.583 585.214 148.517 487.984 160.032Z" stroke="#FFFBFB" stroke-opacity="0.5" stroke-width="1.5"/>
</g>
<g filter="url(#filter3_d_412_203)">
<ellipse cx="375.514" cy="434.805" rx="26.8097" ry="25.4007" fill="#293B56"/>
</g>
<g filter="url(#filter4_d_412_203)">
<ellipse cx="645.398" cy="422.805" rx="26.8097" ry="25.4007" fill="#293B56"/>
</g>
<g filter="url(#filter5_f_412_203)">
<path d="M821.45 337.436C775.918 271.395 718.089 268.855 687.401 266.314C694.306 269.137 723.461 279.284 760.681 304.415C794.538 327.276 795.386 334.05 808.045 355.217C821.164 377.154 832.137 449.199 825.999 485.607C853.621 450.893 853.672 384.173 821.45 337.436Z" fill="white"/>
</g>
<g filter="url(#filter6_f_412_203)">
<path d="M173.658 470.22C183.161 510.012 191.471 524.555 211.082 542.336C208.272 539.788 198.337 522.711 193.209 500.848C189.634 485.608 183.379 463.476 183.379 450.894C183.379 429.726 189.748 414.217 199.653 397.617C179.656 409.726 166.933 442.059 173.658 470.22Z" fill="white"/>
</g>
<foreignObject x="84.9225" y="43.1607" width="416.448" height="368.754"><div xmlns="http://www.w3.org/1999/xhtml" style="backdrop-filter:blur(6.8px);clip-path:url(#bgblur_1_412_203_clip_path);height:100%;width:100%"></div></foreignObject><g filter="url(#filter7_f_412_203)" data-figma-bg-blur-radius="13.6">
<ellipse cx="100.961" cy="238.361" rx="100.961" ry="238.361" transform="matrix(0.686964 0.726691 -0.762667 0.646792 405.58 0)" fill="#D9D9D9" fill-opacity="0.02"/>
</g>
<path d="M461 519.039C464 510.705 474 494.039 490 494.039C510 494.039 518 513.039 535 513.039C552 513.039 566 487.039 582 486.039C594.8 485.239 612 497.039 619 503.039" stroke="#38465C" stroke-width="9" stroke-linecap="round"/>
<g filter="url(#filter8_d_412_203)">
<path d="M185.414 308H135.914V292C135.914 290.5 133.914 285.5 124.414 285.5C114.914 285.5 113.414 292 113.414 293.5C113.414 295 113.914 302.5 113.414 309.5C112.914 316.5 112.414 320 106.914 327.5C101.414 335 95.9141 336.5 91.4141 339C86.9141 341.5 67.4141 351.5 56.4141 356.5C45.4141 361.5 43.4141 368 42.4141 374.5C41.4141 381 32.9141 438.5 32.9141 445C32.9141 451.5 34.9141 457.5 42.4141 466C49.9141 474.5 59.9141 477 64.4141 477.5C68.9141 478 245.914 478 251.414 477.5C256.914 477 258.914 477 263.414 475.5C267.914 474 274.414 472 282.914 463C291.414 454 289.414 440 288.914 434.5C288.414 429 281.414 394 279.414 377.5C277.414 361 269.914 358 263.414 355C256.914 352 232.414 340 222.414 334C212.414 328 208.414 316 208.414 310.5V293.5C208.581 291.167 206.614 286.4 197.414 286C188.214 285.6 185.581 290.834 185.414 293.5V308Z" fill="url(#paint2_linear_412_203)"/>
</g>
<path d="M182.914 438.5C176.207 443.036 169.12 445 160.414 445C137.218 445 118.414 426.196 118.414 403C118.414 379.804 137.218 361 160.414 361C183.61 361 202.414 379.804 202.414 403C202.414 412.143 201.375 417.604 196.414 424.5" stroke="white" stroke-opacity="0.5" stroke-width="12" stroke-linecap="round"/>
<g filter="url(#filter10_d_412_203)">
<path d="M163.914 270C152.914 270 130.914 271 123.914 271.5C122.581 271.833 119.214 272.6 116.414 273C112.914 273.5 108.914 275.5 105.414 278.5C101.914 281.5 100.914 286.5 100.914 288V308.5C100.914 315 96.4141 321.5 91.9141 324C87.4141 326.5 40.4141 352 36.4141 353.5C32.4141 355 23.4141 356.5 19.9141 354.5C16.4141 352.5 4.4141 346 2.4141 332C0.414099 318 5.9141 298.5 13.4141 283C20.9141 267.5 41.4141 251 57.9141 242C74.4141 233 102.414 226 111.914 224.5C121.414 223 161.914 221 180.914 221C199.914 221 235.414 230 246.914 234.5C258.414 239 287.414 252 301.914 270C316.414 288 318.914 309 319.414 317C319.914 325 322.414 337.5 311.914 348.5C301.414 359.5 290.414 354.5 285.414 352C280.414 349.5 227.414 323.5 223.914 317C220.414 310.5 221.414 303 221.414 296C221.414 289 221.414 281.5 216.414 278C211.414 274.5 208.414 274.5 202.914 273C197.414 271.5 174.914 270 163.914 270Z" fill="url(#paint3_linear_412_203)"/>
</g>
<path d="M191.445 481.052C203.972 490.962 246.231 488.669 261.093 490.958L279.02 558.811L202.09 551.947C191.986 544.884 179.491 540.554 159.72 522.524C141.892 506.266 109.586 468.848 126.37 446.083C143.154 423.319 175.786 468.664 191.445 481.052Z" fill="url(#paint4_linear_412_203)" stroke="url(#paint5_linear_412_203)" stroke-linecap="round"/>
<g filter="url(#filter11_f_412_203)">
<ellipse cx="273.487" cy="518.53" rx="72" ry="54" transform="rotate(-11.7489 273.487 518.53)" fill="url(#paint6_linear_412_203)"/>
</g>
<defs>
<filter id="filter0_df_412_203" x="149.212" y="143.385" width="732.386" height="540.016" filterUnits="userSpaceOnUse" color-interpolation-filters="sRGB">
<feFlood flood-opacity="0" result="BackgroundImageFix"/>
<feColorMatrix in="SourceAlpha" type="matrix" values="0 0 0 0 0 0 0 0 0 0 0 0 0 0 0 0 0 0 127 0" result="hardAlpha"/>
<feOffset dx="4" dy="4"/>
<feGaussianBlur stdDeviation="9.7"/>
<feComposite in2="hardAlpha" operator="out"/>
<feColorMatrix type="matrix" values="0 0 0 0 0.321569 0 0 0 0 0.509804 0 0 0 0 1 0 0 0 0.52 0"/>
<feBlend mode="normal" in2="BackgroundImageFix" result="effect1_dropShadow_412_203"/>
<feBlend mode="normal" in="SourceGraphic" in2="effect1_dropShadow_412_203" result="shape"/>
<feGaussianBlur stdDeviation="3.4" result="effect2_foregroundBlur_412_203"/>
</filter>
<filter id="filter1_f_412_203" x="165.202" y="148.093" width="699.444" height="561.57" filterUnits="userSpaceOnUse" color-interpolation-filters="sRGB">
<feFlood flood-opacity="0" result="BackgroundImageFix"/>
<feBlend mode="normal" in="SourceGraphic" in2="BackgroundImageFix" result="shape"/>
<feGaussianBlur stdDeviation="42.6" result="effect1_foregroundBlur_412_203"/>
</filter>
<filter id="filter2_f_412_203" x="157.162" y="151.334" width="708.486" height="516.117" filterUnits="userSpaceOnUse" color-interpolation-filters="sRGB">
<feFlood flood-opacity="0" result="BackgroundImageFix"/>
<feBlend mode="normal" in="SourceGraphic" in2="BackgroundImageFix" result="shape"/>
<feGaussianBlur stdDeviation="1.2" result="effect1_foregroundBlur_412_203"/>
</filter>
<clipPath id="bgblur_0_412_203_clip_path" transform="translate(-157.162 -151.334)"><path d="M487.984 160.032C390.754 171.547 337.85 238.21 323.551 270.102C308.657 265.586 268.502 262.143 227.036 284.495C185.571 306.848 182.354 357.028 185.929 379.324C169.843 397.952 147.323 455.188 185.929 535.115C224.535 615.042 313.423 635.589 353.042 635.871C374.49 645.185 431.505 662.965 487.984 659.578C544.463 656.192 600.287 642.362 621.139 635.871C651.225 643.209 725.16 649.757 780.209 617.244C835.258 584.731 838.297 524.108 832.935 497.861C852 478.669 878.69 418.78 832.935 332.757C787.18 246.733 692.333 246.112 650.629 256.555C636.927 219.583 585.214 148.517 487.984 160.032Z"/>
</clipPath><filter id="filter3_d_412_203" x="339.704" y="398.404" width="73.6191" height="70.8018" filterUnits="userSpaceOnUse" color-interpolation-filters="sRGB">
<feFlood flood-opacity="0" result="BackgroundImageFix"/>
<feColorMatrix in="SourceAlpha" type="matrix" values="0 0 0 0 0 0 0 0 0 0 0 0 0 0 0 0 0 0 127 0" result="hardAlpha"/>
<feOffset dx="1" dy="-1"/>
<feGaussianBlur stdDeviation="5"/>
<feComposite in2="hardAlpha" operator="out"/>
<feColorMatrix type="matrix" values="0 0 0 0 0.321569 0 0 0 0 0.509804 0 0 0 0 1 0 0 0 1 0"/>
<feBlend mode="normal" in2="BackgroundImageFix" result="effect1_dropShadow_412_203"/>
<feBlend mode="normal" in="SourceGraphic" in2="effect1_dropShadow_412_203" result="shape"/>
</filter>
<filter id="filter4_d_412_203" x="609.589" y="386.404" width="73.6191" height="70.8018" filterUnits="userSpaceOnUse" color-interpolation-filters="sRGB">
<feFlood flood-opacity="0" result="BackgroundImageFix"/>
<feColorMatrix in="SourceAlpha" type="matrix" values="0 0 0 0 0 0 0 0 0 0 0 0 0 0 0 0 0 0 127 0" result="hardAlpha"/>
<feOffset dx="1" dy="-1"/>
<feGaussianBlur stdDeviation="5"/>
<feComposite in2="hardAlpha" operator="out"/>
<feColorMatrix type="matrix" values="0 0 0 0 0.321569 0 0 0 0 0.509804 0 0 0 0 1 0 0 0 1 0"/>
<feBlend mode="normal" in2="BackgroundImageFix" result="effect1_dropShadow_412_203"/>
<feBlend mode="normal" in="SourceGraphic" in2="effect1_dropShadow_412_203" result="shape"/>
</filter>
<filter id="filter5_f_412_203" x="669.601" y="248.514" width="194.397" height="254.892" filterUnits="userSpaceOnUse" color-interpolation-filters="sRGB">
<feFlood flood-opacity="0" result="BackgroundImageFix"/>
<feBlend mode="normal" in="SourceGraphic" in2="BackgroundImageFix" result="shape"/>
<feGaussianBlur stdDeviation="8.9" result="effect1_foregroundBlur_412_203"/>
</filter>
<filter id="filter6_f_412_203" x="159.646" y="385.417" width="63.6363" height="169.119" filterUnits="userSpaceOnUse" color-interpolation-filters="sRGB">
<feFlood flood-opacity="0" result="BackgroundImageFix"/>
<feBlend mode="normal" in="SourceGraphic" in2="BackgroundImageFix" result="shape"/>
<feGaussianBlur stdDeviation="6.1" result="effect1_foregroundBlur_412_203"/>
</filter>
<filter id="filter7_f_412_203" x="84.9225" y="43.1607" width="416.448" height="368.754" filterUnits="userSpaceOnUse" color-interpolation-filters="sRGB">
<feFlood flood-opacity="0" result="BackgroundImageFix"/>
<feBlend mode="normal" in="SourceGraphic" in2="BackgroundImageFix" result="shape"/>
<feGaussianBlur stdDeviation="6.35" result="effect1_foregroundBlur_412_203"/>
</filter>
<clipPath id="bgblur_1_412_203_clip_path" transform="translate(-84.9225 -43.1607)"><ellipse cx="100.961" cy="238.361" rx="100.961" ry="238.361" transform="matrix(0.686964 0.726691 -0.762667 0.646792 405.58 0)"/>
</clipPath><filter id="filter8_d_412_203" x="30.9141" y="285.5" width="260.563" height="196.375" filterUnits="userSpaceOnUse" color-interpolation-filters="sRGB">
<feFlood flood-opacity="0" result="BackgroundImageFix"/>
<feColorMatrix in="SourceAlpha" type="matrix" values="0 0 0 0 0 0 0 0 0 0 0 0 0 0 0 0 0 0 127 0" result="hardAlpha"/>
<feOffset dy="2"/>
<feGaussianBlur stdDeviation="1"/>
<feComposite in2="hardAlpha" operator="out"/>
<feColorMatrix type="matrix" values="0 0 0 0 1 0 0 0 0 1 0 0 0 0 1 0 0 0 1 0"/>
<feBlend mode="normal" in2="BackgroundImageFix" result="effect1_dropShadow_412_203"/>
<feBlend mode="normal" in="SourceGraphic" in2="effect1_dropShadow_412_203" result="shape"/>
</filter>
<filter id="filter10_d_412_203" x="0" y="221" width="322.032" height="138.464" filterUnits="userSpaceOnUse" color-interpolation-filters="sRGB">
<feFlood flood-opacity="0" result="BackgroundImageFix"/>
<feColorMatrix in="SourceAlpha" type="matrix" values="0 0 0 0 0 0 0 0 0 0 0 0 0 0 0 0 0 0 127 0" result="hardAlpha"/>
<feOffset dy="2"/>
<feGaussianBlur stdDeviation="1"/>
<feComposite in2="hardAlpha" operator="out"/>
<feColorMatrix type="matrix" values="0 0 0 0 1 0 0 0 0 1 0 0 0 0 1 0 0 0 1 0"/>
<feBlend mode="normal" in2="BackgroundImageFix" result="effect1_dropShadow_412_203"/>
<feBlend mode="normal" in="SourceGraphic" in2="effect1_dropShadow_412_203" result="shape"/>
</filter>
<filter id="filter11_f_412_203" x="176.233" y="437.752" width="194.509" height="161.556" filterUnits="userSpaceOnUse" color-interpolation-filters="sRGB">
<feFlood flood-opacity="0" result="BackgroundImageFix"/>
<feBlend mode="normal" in="SourceGraphic" in2="BackgroundImageFix" result="shape"/>
<feGaussianBlur stdDeviation="12.95" result="effect1_foregroundBlur_412_203"/>
</filter>
<linearGradient id="paint0_linear_412_203" x1="212.098" y1="307.119" x2="869.27" y2="650.376" gradientUnits="userSpaceOnUse">
<stop stop-color="#F7CAF7"/>
<stop offset="0.5" stop-color="#76A6E7"/>
<stop offset="1" stop-color="#AFB6EB"/>
</linearGradient>
<linearGradient id="paint1_linear_412_203" x1="718.678" y1="290.869" x2="482.222" y2="651.655" gradientUnits="userSpaceOnUse">
<stop stop-color="#F4F5FF" stop-opacity="0.54"/>
<stop offset="0.32199" stop-color="#76A6E7" stop-opacity="0.15"/>
<stop offset="0.729308" stop-color="#9CBEEE" stop-opacity="0.164506"/>
<stop offset="1" stop-color="#F8F9FF" stop-opacity="0"/>
</linearGradient>
<linearGradient id="paint2_linear_412_203" x1="67.1484" y1="285.5" x2="289.414" y2="529" gradientUnits="userSpaceOnUse">
<stop stop-color="#F2CFB7"/>
<stop offset="0.3125" stop-color="#EBCEF5"/>
<stop offset="0.629808" stop-color="#D1D7F7"/>
<stop offset="1" stop-color="#9BA9E1"/>
</linearGradient>
<linearGradient id="paint3_linear_412_203" x1="50.4141" y1="195.5" x2="295.414" y2="396" gradientUnits="userSpaceOnUse">
<stop offset="0.0913462" stop-color="#F2CFB7"/>
<stop offset="0.3125" stop-color="#EBCEF5"/>
<stop offset="0.629808" stop-color="#D1D7F7"/>
<stop offset="1" stop-color="#98A7E0"/>
</linearGradient>
<linearGradient id="paint4_linear_412_203" x1="201.129" y1="431.441" x2="205.242" y2="549.83" gradientUnits="userSpaceOnUse">
<stop offset="0.0751926" stop-color="#C7BBDF"/>
<stop offset="0.877124" stop-color="#A8BCEE"/>
</linearGradient>
<linearGradient id="paint5_linear_412_203" x1="155.728" y1="439.164" x2="229.811" y2="515.347" gradientUnits="userSpaceOnUse">
<stop offset="0.231506" stop-color="#DADBF8"/>
<stop offset="1" stop-color="#A8BCEE"/>
</linearGradient>
<linearGradient id="paint6_linear_412_203" x1="294.059" y1="513.03" x2="216.687" y2="522.074" gradientUnits="userSpaceOnUse">
<stop stop-color="#E7E0F7"/>
<stop offset="0.305546" stop-color="#C6C7F2"/>
<stop offset="1" stop-color="#ACBCEC"/>
</linearGradient>
</defs>
</svg>
