<svg width="840" height="710" viewBox="0 0 840 710" fill="none" xmlns="http://www.w3.org/2000/svg">
<g filter="url(#filter0_df_363_3566)">
<path d="M445.984 160.031C348.754 171.546 295.85 238.209 281.551 270.101C266.657 265.585 226.502 262.142 185.036 284.494C143.571 306.847 140.354 357.027 143.929 379.323C127.843 397.951 105.323 455.187 143.929 535.114C182.535 615.042 271.423 635.588 311.042 635.87C332.49 645.184 389.505 662.964 445.984 659.577C502.463 656.191 558.287 642.361 579.139 635.87C609.225 643.208 683.16 649.756 738.209 617.243C793.258 584.73 796.297 524.107 790.935 497.86C810 478.668 836.69 418.779 790.935 332.756C745.18 246.732 650.333 246.111 608.629 256.554C594.927 219.582 543.214 148.516 445.984 160.031Z" fill="url(#paint0_linear_363_3566)"/>
</g>
<g filter="url(#filter1_f_363_3566)">
<ellipse cx="472.924" cy="428.878" rx="264.522" ry="195.585" fill="#FEF0FF" fill-opacity="0.84"/>
</g>
<foreignObject x="115.162" y="151.333" width="708.486" height="516.117"><div xmlns="http://www.w3.org/1999/xhtml" style="backdrop-filter:blur(3.35px);clip-path:url(#bgblur_0_363_3566_clip_path);height:100%;width:100%"></div></foreignObject><g filter="url(#filter2_f_363_3566)" data-figma-bg-blur-radius="6.7">
<path d="M445.984 160.031C348.754 171.546 295.85 238.209 281.551 270.101C266.657 265.585 226.502 262.142 185.036 284.494C143.571 306.847 140.354 357.027 143.929 379.323C127.843 397.951 105.323 455.187 143.929 535.114C182.535 615.042 271.423 635.588 311.042 635.87C332.49 645.184 389.505 662.964 445.984 659.577C502.463 656.191 558.287 642.361 579.139 635.87C609.225 643.208 683.16 649.756 738.209 617.243C793.258 584.73 796.297 524.107 790.935 497.86C810 478.668 836.69 418.779 790.935 332.756C745.18 246.732 650.333 246.111 608.629 256.554C594.927 219.582 543.214 148.516 445.984 160.031Z" fill="url(#paint1_linear_363_3566)"/>
<path d="M445.984 160.031C348.754 171.546 295.85 238.209 281.551 270.101C266.657 265.585 226.502 262.142 185.036 284.494C143.571 306.847 140.354 357.027 143.929 379.323C127.843 397.951 105.323 455.187 143.929 535.114C182.535 615.042 271.423 635.588 311.042 635.87C332.49 645.184 389.505 662.964 445.984 659.577C502.463 656.191 558.287 642.361 579.139 635.87C609.225 643.208 683.16 649.756 738.209 617.243C793.258 584.73 796.297 524.107 790.935 497.86C810 478.668 836.69 418.779 790.935 332.756C745.18 246.732 650.333 246.111 608.629 256.554C594.927 219.582 543.214 148.516 445.984 160.031Z" stroke="#FFFBFB" stroke-opacity="0.5" stroke-width="1.5"/>
</g>
<g filter="url(#filter3_d_363_3566)">
<ellipse cx="333.514" cy="434.805" rx="26.8097" ry="25.4007" fill="#293B56"/>
</g>
<g filter="url(#filter4_d_363_3566)">
<ellipse cx="603.398" cy="434.805" rx="26.8097" ry="25.4007" fill="#293B56"/>
</g>
<g filter="url(#filter5_d_363_3566)">
<path d="M426.455 488.993C441.945 500.847 479.181 517.442 504.203 488.993" stroke="#293B56" stroke-width="3" stroke-linecap="round"/>
</g>
<g filter="url(#filter6_f_363_3566)">
<path d="M779.45 337.436C733.918 271.395 676.089 268.855 645.401 266.314C652.306 269.137 681.461 279.284 718.681 304.415C752.538 327.276 753.386 334.05 766.045 355.217C779.164 377.154 790.137 449.199 783.999 485.607C811.621 450.893 811.672 384.173 779.45 337.436Z" fill="white"/>
</g>
<g filter="url(#filter7_f_363_3566)">
<path d="M131.658 470.22C141.161 510.012 149.471 524.555 169.082 542.336C166.272 539.788 156.337 522.711 151.209 500.848C147.634 485.608 141.379 463.476 141.379 450.894C141.379 429.726 147.748 414.217 157.653 397.617C137.656 409.726 124.933 442.059 131.658 470.22Z" fill="white"/>
</g>
<foreignObject x="42.9225" y="43.1607" width="416.448" height="368.754"><div xmlns="http://www.w3.org/1999/xhtml" style="backdrop-filter:blur(6.8px);clip-path:url(#bgblur_1_363_3566_clip_path);height:100%;width:100%"></div></foreignObject><g filter="url(#filter8_f_363_3566)" data-figma-bg-blur-radius="13.6">
<ellipse cx="100.961" cy="238.361" rx="100.961" ry="238.361" transform="matrix(0.686964 0.726691 -0.762667 0.646792 363.58 0)" fill="#D9D9D9" fill-opacity="0.02"/>
</g>
<defs>
<filter id="filter0_df_363_3566" x="107.212" y="143.384" width="732.386" height="540.016" filterUnits="userSpaceOnUse" color-interpolation-filters="sRGB">
<feFlood flood-opacity="0" result="BackgroundImageFix"/>
<feColorMatrix in="SourceAlpha" type="matrix" values="0 0 0 0 0 0 0 0 0 0 0 0 0 0 0 0 0 0 127 0" result="hardAlpha"/>
<feOffset dx="4" dy="4"/>
<feGaussianBlur stdDeviation="9.7"/>
<feComposite in2="hardAlpha" operator="out"/>
<feColorMatrix type="matrix" values="0 0 0 0 0.321569 0 0 0 0 0.509804 0 0 0 0 1 0 0 0 0.52 0"/>
<feBlend mode="normal" in2="BackgroundImageFix" result="effect1_dropShadow_363_3566"/>
<feBlend mode="normal" in="SourceGraphic" in2="effect1_dropShadow_363_3566" result="shape"/>
<feGaussianBlur stdDeviation="3.4" result="effect2_foregroundBlur_363_3566"/>
</filter>
<filter id="filter1_f_363_3566" x="123.202" y="148.093" width="699.444" height="561.57" filterUnits="userSpaceOnUse" color-interpolation-filters="sRGB">
<feFlood flood-opacity="0" result="BackgroundImageFix"/>
<feBlend mode="normal" in="SourceGraphic" in2="BackgroundImageFix" result="shape"/>
<feGaussianBlur stdDeviation="42.6" result="effect1_foregroundBlur_363_3566"/>
</filter>
<filter id="filter2_f_363_3566" x="115.162" y="151.333" width="708.486" height="516.117" filterUnits="userSpaceOnUse" color-interpolation-filters="sRGB">
<feFlood flood-opacity="0" result="BackgroundImageFix"/>
<feBlend mode="normal" in="SourceGraphic" in2="BackgroundImageFix" result="shape"/>
<feGaussianBlur stdDeviation="1.2" result="effect1_foregroundBlur_363_3566"/>
</filter>
<clipPath id="bgblur_0_363_3566_clip_path" transform="translate(-115.162 -151.333)"><path d="M445.984 160.031C348.754 171.546 295.85 238.209 281.551 270.101C266.657 265.585 226.502 262.142 185.036 284.494C143.571 306.847 140.354 357.027 143.929 379.323C127.843 397.951 105.323 455.187 143.929 535.114C182.535 615.042 271.423 635.588 311.042 635.87C332.49 645.184 389.505 662.964 445.984 659.577C502.463 656.191 558.287 642.361 579.139 635.87C609.225 643.208 683.16 649.756 738.209 617.243C793.258 584.73 796.297 524.107 790.935 497.86C810 478.668 836.69 418.779 790.935 332.756C745.18 246.732 650.333 246.111 608.629 256.554C594.927 219.582 543.214 148.516 445.984 160.031Z"/>
</clipPath><filter id="filter3_d_363_3566" x="297.704" y="398.404" width="73.6191" height="70.8018" filterUnits="userSpaceOnUse" color-interpolation-filters="sRGB">
<feFlood flood-opacity="0" result="BackgroundImageFix"/>
<feColorMatrix in="SourceAlpha" type="matrix" values="0 0 0 0 0 0 0 0 0 0 0 0 0 0 0 0 0 0 127 0" result="hardAlpha"/>
<feOffset dx="1" dy="-1"/>
<feGaussianBlur stdDeviation="5"/>
<feComposite in2="hardAlpha" operator="out"/>
<feColorMatrix type="matrix" values="0 0 0 0 0.321569 0 0 0 0 0.509804 0 0 0 0 1 0 0 0 1 0"/>
<feBlend mode="normal" in2="BackgroundImageFix" result="effect1_dropShadow_363_3566"/>
<feBlend mode="normal" in="SourceGraphic" in2="effect1_dropShadow_363_3566" result="shape"/>
</filter>
<filter id="filter4_d_363_3566" x="567.589" y="398.404" width="73.6191" height="70.8018" filterUnits="userSpaceOnUse" color-interpolation-filters="sRGB">
<feFlood flood-opacity="0" result="BackgroundImageFix"/>
<feColorMatrix in="SourceAlpha" type="matrix" values="0 0 0 0 0 0 0 0 0 0 0 0 0 0 0 0 0 0 127 0" result="hardAlpha"/>
<feOffset dx="1" dy="-1"/>
<feGaussianBlur stdDeviation="5"/>
<feComposite in2="hardAlpha" operator="out"/>
<feColorMatrix type="matrix" values="0 0 0 0 0.321569 0 0 0 0 0.509804 0 0 0 0 1 0 0 0 1 0"/>
<feBlend mode="normal" in2="BackgroundImageFix" result="effect1_dropShadow_363_3566"/>
<feBlend mode="normal" in="SourceGraphic" in2="effect1_dropShadow_363_3566" result="shape"/>
</filter>
<filter id="filter5_d_363_3566" x="420.955" y="483.493" width="88.748" height="26.707" filterUnits="userSpaceOnUse" color-interpolation-filters="sRGB">
<feFlood flood-opacity="0" result="BackgroundImageFix"/>
<feColorMatrix in="SourceAlpha" type="matrix" values="0 0 0 0 0 0 0 0 0 0 0 0 0 0 0 0 0 0 127 0" result="hardAlpha"/>
<feOffset/>
<feGaussianBlur stdDeviation="2"/>
<feComposite in2="hardAlpha" operator="out"/>
<feColorMatrix type="matrix" values="0 0 0 0 0.321569 0 0 0 0 0.509804 0 0 0 0 1 0 0 0 1 0"/>
<feBlend mode="normal" in2="BackgroundImageFix" result="effect1_dropShadow_363_3566"/>
<feBlend mode="normal" in="SourceGraphic" in2="effect1_dropShadow_363_3566" result="shape"/>
</filter>
<filter id="filter6_f_363_3566" x="627.601" y="248.514" width="194.397" height="254.892" filterUnits="userSpaceOnUse" color-interpolation-filters="sRGB">
<feFlood flood-opacity="0" result="BackgroundImageFix"/>
<feBlend mode="normal" in="SourceGraphic" in2="BackgroundImageFix" result="shape"/>
<feGaussianBlur stdDeviation="8.9" result="effect1_foregroundBlur_363_3566"/>
</filter>
<filter id="filter7_f_363_3566" x="117.646" y="385.417" width="63.6363" height="169.119" filterUnits="userSpaceOnUse" color-interpolation-filters="sRGB">
<feFlood flood-opacity="0" result="BackgroundImageFix"/>
<feBlend mode="normal" in="SourceGraphic" in2="BackgroundImageFix" result="shape"/>
<feGaussianBlur stdDeviation="6.1" result="effect1_foregroundBlur_363_3566"/>
</filter>
<filter id="filter8_f_363_3566" x="42.9225" y="43.1607" width="416.448" height="368.754" filterUnits="userSpaceOnUse" color-interpolation-filters="sRGB">
<feFlood flood-opacity="0" result="BackgroundImageFix"/>
<feBlend mode="normal" in="SourceGraphic" in2="BackgroundImageFix" result="shape"/>
<feGaussianBlur stdDeviation="6.35" result="effect1_foregroundBlur_363_3566"/>
</filter>
<clipPath id="bgblur_1_363_3566_clip_path" transform="translate(-42.9225 -43.1607)"><ellipse cx="100.961" cy="238.361" rx="100.961" ry="238.361" transform="matrix(0.686964 0.726691 -0.762667 0.646792 363.58 0)"/>
</clipPath><linearGradient id="paint0_linear_363_3566" x1="170.098" y1="307.118" x2="827.27" y2="650.375" gradientUnits="userSpaceOnUse">
<stop stop-color="#F7CAF7"/>
<stop offset="0.5" stop-color="#76A6E7"/>
<stop offset="1" stop-color="#AFB6EB"/>
</linearGradient>
<linearGradient id="paint1_linear_363_3566" x1="676.678" y1="290.868" x2="440.222" y2="651.654" gradientUnits="userSpaceOnUse">
<stop stop-color="#F4F5FF" stop-opacity="0.54"/>
<stop offset="0.32199" stop-color="#76A6E7" stop-opacity="0.15"/>
<stop offset="0.729308" stop-color="#9CBEEE" stop-opacity="0.164506"/>
<stop offset="1" stop-color="#F8F9FF" stop-opacity="0"/>
</linearGradient>
</defs>
</svg>
