<svg width="899" height="710" viewBox="0 0 899 710" fill="none" xmlns="http://www.w3.org/2000/svg">
<g filter="url(#filter0_df_367_3633)">
<path d="M445.984 160.031C348.754 171.546 295.85 238.209 281.551 270.101C266.657 265.585 226.502 262.142 185.036 284.494C143.571 306.847 140.354 357.027 143.929 379.323C127.843 397.951 105.323 455.187 143.929 535.114C182.535 615.042 271.423 635.588 311.042 635.87C332.49 645.184 389.505 662.964 445.984 659.577C502.463 656.191 558.287 642.361 579.139 635.87C609.225 643.208 683.16 649.756 738.209 617.243C793.258 584.73 796.297 524.107 790.935 497.86C810 478.668 836.69 418.779 790.935 332.756C745.18 246.732 650.333 246.111 608.629 256.554C594.927 219.582 543.214 148.516 445.984 160.031Z" fill="url(#paint0_linear_367_3633)"/>
</g>
<g filter="url(#filter1_f_367_3633)">
<ellipse cx="472.924" cy="428.878" rx="264.522" ry="195.585" fill="#FEF0FF" fill-opacity="0.84"/>
</g>
<foreignObject x="115.162" y="151.333" width="708.486" height="516.117"><div xmlns="http://www.w3.org/1999/xhtml" style="backdrop-filter:blur(3.35px);clip-path:url(#bgblur_0_367_3633_clip_path);height:100%;width:100%"></div></foreignObject><g filter="url(#filter2_f_367_3633)" data-figma-bg-blur-radius="6.7">
<path d="M445.984 160.031C348.754 171.546 295.85 238.209 281.551 270.101C266.657 265.585 226.502 262.142 185.036 284.494C143.571 306.847 140.354 357.027 143.929 379.323C127.843 397.951 105.323 455.187 143.929 535.114C182.535 615.042 271.423 635.588 311.042 635.87C332.49 645.184 389.505 662.964 445.984 659.577C502.463 656.191 558.287 642.361 579.139 635.87C609.225 643.208 683.16 649.756 738.209 617.243C793.258 584.73 796.297 524.107 790.935 497.86C810 478.668 836.69 418.779 790.935 332.756C745.18 246.732 650.333 246.111 608.629 256.554C594.927 219.582 543.214 148.516 445.984 160.031Z" fill="url(#paint1_linear_367_3633)"/>
<path d="M445.984 160.031C348.754 171.546 295.85 238.209 281.551 270.101C266.657 265.585 226.502 262.142 185.036 284.494C143.571 306.847 140.354 357.027 143.929 379.323C127.843 397.951 105.323 455.187 143.929 535.114C182.535 615.042 271.423 635.588 311.042 635.87C332.49 645.184 389.505 662.964 445.984 659.577C502.463 656.191 558.287 642.361 579.139 635.87C609.225 643.208 683.16 649.756 738.209 617.243C793.258 584.73 796.297 524.107 790.935 497.86C810 478.668 836.69 418.779 790.935 332.756C745.18 246.732 650.333 246.111 608.629 256.554C594.927 219.582 543.214 148.516 445.984 160.031Z" stroke="#FFFBFB" stroke-opacity="0.5" stroke-width="1.5"/>
</g>
<g filter="url(#filter3_f_367_3633)">
<path d="M779.45 337.436C733.918 271.395 676.089 268.855 645.401 266.314C652.306 269.137 681.461 279.284 718.681 304.415C752.538 327.276 753.386 334.05 766.045 355.217C779.164 377.154 790.137 449.199 783.999 485.607C811.621 450.893 811.672 384.173 779.45 337.436Z" fill="white"/>
</g>
<g filter="url(#filter4_f_367_3633)">
<path d="M131.658 470.22C141.161 510.012 149.471 524.555 169.082 542.336C166.272 539.788 156.337 522.711 151.209 500.848C147.634 485.608 141.379 463.476 141.379 450.894C141.379 429.726 147.748 414.217 157.653 397.617C137.656 409.726 124.933 442.059 131.658 470.22Z" fill="white"/>
</g>
<path d="M777.297 416.506C768.283 429.693 727.253 440.068 713.744 446.673L716.802 516.787L788.212 487.36C795.76 477.613 806.402 469.763 819.918 446.67C832.106 425.847 851.826 380.515 829.032 363.77C806.238 347.026 788.564 400.023 777.297 416.506Z" fill="url(#paint2_linear_367_3633)" stroke="url(#paint3_linear_367_3633)" stroke-linecap="round"/>
<g filter="url(#filter5_f_367_3633)">
<ellipse cx="714.956" cy="480.57" rx="43" ry="46.5" transform="rotate(-10.8059 714.956 480.57)" fill="url(#paint4_linear_367_3633)"/>
</g>
<foreignObject x="42.9225" y="43.1607" width="416.448" height="368.754"><div xmlns="http://www.w3.org/1999/xhtml" style="backdrop-filter:blur(6.8px);clip-path:url(#bgblur_1_367_3633_clip_path);height:100%;width:100%"></div></foreignObject><g filter="url(#filter6_f_367_3633)" data-figma-bg-blur-radius="13.6">
<ellipse cx="100.961" cy="238.361" rx="100.961" ry="238.361" transform="matrix(0.686964 0.726691 -0.762667 0.646792 363.58 0)" fill="#D9D9D9" fill-opacity="0.02"/>
</g>
<g filter="url(#filter7_d_367_3633)">
<ellipse cx="381.81" cy="399.401" rx="26.8097" ry="25.4007" fill="#293B56"/>
</g>
<g filter="url(#filter8_d_367_3633)">
<ellipse cx="563.81" cy="385.401" rx="26.8097" ry="25.4007" fill="#293B56"/>
</g>
<path d="M361 346.5L409 359.5" stroke="#38465C" stroke-width="5" stroke-linecap="round"/>
<path d="M520 351.5L564 332" stroke="#38465C" stroke-width="5" stroke-linecap="round"/>
<path d="M438 467.501C447.833 463.667 470.8 455.601 484 454.001C497.2 452.401 511.833 453.334 517.5 454.001" stroke="#38465C" stroke-width="5" stroke-linecap="round"/>
<g filter="url(#filter9_d_367_3633)">
<path d="M759.031 341.959C759.031 336.928 768.179 330.715 772.752 328.238C768.179 298.89 758.574 240.195 756.745 240.195C754.458 240.195 742.452 232.763 744.167 224.188C745.882 215.612 756.173 217.327 759.031 213.325C761.89 209.323 761.89 203.606 772.752 193.316C781.442 185.083 793.905 178.07 799.051 175.593C796.764 170.257 791.761 164.731 792.762 152.725C793.334 145.864 801.337 131 817.345 131C833.353 131 844.215 141.291 846.502 152.725C848.332 161.872 842.691 171.782 839.642 175.593C842.5 175.783 850.504 177.994 859.651 185.312C871.085 194.459 877.946 212.754 877.946 213.325C877.946 213.897 896.24 216.756 894.525 227.618C892.81 238.48 883.663 239.052 881.376 240.195C879.089 241.339 864.797 331.668 867.655 331.096C870.514 330.525 880.804 340.244 877.946 345.961C875.087 351.678 848.789 370.544 844.215 370.544C839.642 370.544 799.622 371.116 795.049 370.544C790.475 369.972 759.031 348.248 759.031 341.959Z" fill="url(#paint5_linear_367_3633)"/>
</g>
<path d="M864.63 247.628H774.872L788.593 337.957H800.027C799.455 328.619 798.655 308.457 800.027 302.512C801.742 295.079 813.176 261.349 820.608 262.492C828.041 263.636 837.76 293.364 840.618 302.512C842.905 309.829 841.571 329.191 840.618 337.957H851.48L864.63 247.628Z" fill="#FDEFEE"/>
<circle cx="818.893" cy="154.44" r="15.436" fill="#F0FAFC"/>
<defs>
<filter id="filter0_df_367_3633" x="107.212" y="143.384" width="732.386" height="540.016" filterUnits="userSpaceOnUse" color-interpolation-filters="sRGB">
<feFlood flood-opacity="0" result="BackgroundImageFix"/>
<feColorMatrix in="SourceAlpha" type="matrix" values="0 0 0 0 0 0 0 0 0 0 0 0 0 0 0 0 0 0 127 0" result="hardAlpha"/>
<feOffset dx="4" dy="4"/>
<feGaussianBlur stdDeviation="9.7"/>
<feComposite in2="hardAlpha" operator="out"/>
<feColorMatrix type="matrix" values="0 0 0 0 0.321569 0 0 0 0 0.509804 0 0 0 0 1 0 0 0 0.52 0"/>
<feBlend mode="normal" in2="BackgroundImageFix" result="effect1_dropShadow_367_3633"/>
<feBlend mode="normal" in="SourceGraphic" in2="effect1_dropShadow_367_3633" result="shape"/>
<feGaussianBlur stdDeviation="3.4" result="effect2_foregroundBlur_367_3633"/>
</filter>
<filter id="filter1_f_367_3633" x="123.202" y="148.093" width="699.444" height="561.57" filterUnits="userSpaceOnUse" color-interpolation-filters="sRGB">
<feFlood flood-opacity="0" result="BackgroundImageFix"/>
<feBlend mode="normal" in="SourceGraphic" in2="BackgroundImageFix" result="shape"/>
<feGaussianBlur stdDeviation="42.6" result="effect1_foregroundBlur_367_3633"/>
</filter>
<filter id="filter2_f_367_3633" x="115.162" y="151.333" width="708.486" height="516.117" filterUnits="userSpaceOnUse" color-interpolation-filters="sRGB">
<feFlood flood-opacity="0" result="BackgroundImageFix"/>
<feBlend mode="normal" in="SourceGraphic" in2="BackgroundImageFix" result="shape"/>
<feGaussianBlur stdDeviation="1.2" result="effect1_foregroundBlur_367_3633"/>
</filter>
<clipPath id="bgblur_0_367_3633_clip_path" transform="translate(-115.162 -151.333)"><path d="M445.984 160.031C348.754 171.546 295.85 238.209 281.551 270.101C266.657 265.585 226.502 262.142 185.036 284.494C143.571 306.847 140.354 357.027 143.929 379.323C127.843 397.951 105.323 455.187 143.929 535.114C182.535 615.042 271.423 635.588 311.042 635.87C332.49 645.184 389.505 662.964 445.984 659.577C502.463 656.191 558.287 642.361 579.139 635.87C609.225 643.208 683.16 649.756 738.209 617.243C793.258 584.73 796.297 524.107 790.935 497.86C810 478.668 836.69 418.779 790.935 332.756C745.18 246.732 650.333 246.111 608.629 256.554C594.927 219.582 543.214 148.516 445.984 160.031Z"/>
</clipPath><filter id="filter3_f_367_3633" x="627.601" y="248.514" width="194.397" height="254.892" filterUnits="userSpaceOnUse" color-interpolation-filters="sRGB">
<feFlood flood-opacity="0" result="BackgroundImageFix"/>
<feBlend mode="normal" in="SourceGraphic" in2="BackgroundImageFix" result="shape"/>
<feGaussianBlur stdDeviation="8.9" result="effect1_foregroundBlur_367_3633"/>
</filter>
<filter id="filter4_f_367_3633" x="117.646" y="385.417" width="63.6363" height="169.119" filterUnits="userSpaceOnUse" color-interpolation-filters="sRGB">
<feFlood flood-opacity="0" result="BackgroundImageFix"/>
<feBlend mode="normal" in="SourceGraphic" in2="BackgroundImageFix" result="shape"/>
<feGaussianBlur stdDeviation="6.1" result="effect1_foregroundBlur_367_3633"/>
</filter>
<filter id="filter5_f_367_3633" x="656.319" y="418.681" width="117.272" height="123.778" filterUnits="userSpaceOnUse" color-interpolation-filters="sRGB">
<feFlood flood-opacity="0" result="BackgroundImageFix"/>
<feBlend mode="normal" in="SourceGraphic" in2="BackgroundImageFix" result="shape"/>
<feGaussianBlur stdDeviation="7.75" result="effect1_foregroundBlur_367_3633"/>
</filter>
<filter id="filter6_f_367_3633" x="42.9225" y="43.1607" width="416.448" height="368.754" filterUnits="userSpaceOnUse" color-interpolation-filters="sRGB">
<feFlood flood-opacity="0" result="BackgroundImageFix"/>
<feBlend mode="normal" in="SourceGraphic" in2="BackgroundImageFix" result="shape"/>
<feGaussianBlur stdDeviation="6.35" result="effect1_foregroundBlur_367_3633"/>
</filter>
<clipPath id="bgblur_1_367_3633_clip_path" transform="translate(-42.9225 -43.1607)"><ellipse cx="100.961" cy="238.361" rx="100.961" ry="238.361" transform="matrix(0.686964 0.726691 -0.762667 0.646792 363.58 0)"/>
</clipPath><filter id="filter7_d_367_3633" x="346" y="363" width="73.6191" height="70.8018" filterUnits="userSpaceOnUse" color-interpolation-filters="sRGB">
<feFlood flood-opacity="0" result="BackgroundImageFix"/>
<feColorMatrix in="SourceAlpha" type="matrix" values="0 0 0 0 0 0 0 0 0 0 0 0 0 0 0 0 0 0 127 0" result="hardAlpha"/>
<feOffset dx="1" dy="-1"/>
<feGaussianBlur stdDeviation="5"/>
<feComposite in2="hardAlpha" operator="out"/>
<feColorMatrix type="matrix" values="0 0 0 0 0.321569 0 0 0 0 0.509804 0 0 0 0 1 0 0 0 1 0"/>
<feBlend mode="normal" in2="BackgroundImageFix" result="effect1_dropShadow_367_3633"/>
<feBlend mode="normal" in="SourceGraphic" in2="effect1_dropShadow_367_3633" result="shape"/>
</filter>
<filter id="filter8_d_367_3633" x="528" y="349" width="73.6191" height="70.8018" filterUnits="userSpaceOnUse" color-interpolation-filters="sRGB">
<feFlood flood-opacity="0" result="BackgroundImageFix"/>
<feColorMatrix in="SourceAlpha" type="matrix" values="0 0 0 0 0 0 0 0 0 0 0 0 0 0 0 0 0 0 127 0" result="hardAlpha"/>
<feOffset dx="1" dy="-1"/>
<feGaussianBlur stdDeviation="5"/>
<feComposite in2="hardAlpha" operator="out"/>
<feColorMatrix type="matrix" values="0 0 0 0 0.321569 0 0 0 0 0.509804 0 0 0 0 1 0 0 0 1 0"/>
<feBlend mode="normal" in2="BackgroundImageFix" result="effect1_dropShadow_367_3633"/>
<feBlend mode="normal" in="SourceGraphic" in2="effect1_dropShadow_367_3633" result="shape"/>
</filter>
<filter id="filter9_d_367_3633" x="740" y="131" width="158.639" height="247.798" filterUnits="userSpaceOnUse" color-interpolation-filters="sRGB">
<feFlood flood-opacity="0" result="BackgroundImageFix"/>
<feColorMatrix in="SourceAlpha" type="matrix" values="0 0 0 0 0 0 0 0 0 0 0 0 0 0 0 0 0 0 127 0" result="hardAlpha"/>
<feOffset dy="4"/>
<feGaussianBlur stdDeviation="2"/>
<feComposite in2="hardAlpha" operator="out"/>
<feColorMatrix type="matrix" values="0 0 0 0 1 0 0 0 0 1 0 0 0 0 1 0 0 0 0.25 0"/>
<feBlend mode="normal" in2="BackgroundImageFix" result="effect1_dropShadow_367_3633"/>
<feBlend mode="normal" in="SourceGraphic" in2="effect1_dropShadow_367_3633" result="shape"/>
</filter>
<linearGradient id="paint0_linear_367_3633" x1="170.098" y1="307.118" x2="827.27" y2="650.375" gradientUnits="userSpaceOnUse">
<stop stop-color="#F7CAF7"/>
<stop offset="0.5" stop-color="#76A6E7"/>
<stop offset="1" stop-color="#AFB6EB"/>
</linearGradient>
<linearGradient id="paint1_linear_367_3633" x1="676.678" y1="290.868" x2="440.222" y2="651.654" gradientUnits="userSpaceOnUse">
<stop stop-color="#F4F5FF" stop-opacity="0.54"/>
<stop offset="0.32199" stop-color="#76A6E7" stop-opacity="0.15"/>
<stop offset="0.729308" stop-color="#9CBEEE" stop-opacity="0.164506"/>
<stop offset="1" stop-color="#F8F9FF" stop-opacity="0"/>
</linearGradient>
<linearGradient id="paint2_linear_367_3633" x1="753.301" y1="372.018" x2="784.574" y2="486.277" gradientUnits="userSpaceOnUse">
<stop offset="0.0751926" stop-color="#C7BBDF"/>
<stop offset="0.877124" stop-color="#A8BCEE"/>
</linearGradient>
<linearGradient id="paint3_linear_367_3633" x1="798.944" y1="365.893" x2="750.863" y2="460.658" gradientUnits="userSpaceOnUse">
<stop offset="0.231506" stop-color="#DADBF8"/>
<stop offset="1" stop-color="#A8BCEE"/>
</linearGradient>
<linearGradient id="paint4_linear_367_3633" x1="679.976" y1="447.358" x2="736.299" y2="517.704" gradientUnits="userSpaceOnUse">
<stop offset="0.000596258" stop-color="#CFD6F6"/>
<stop offset="1" stop-color="#ABBDED"/>
</linearGradient>
<linearGradient id="paint5_linear_367_3633" x1="772.014" y1="142.434" x2="836.616" y2="365.399" gradientUnits="userSpaceOnUse">
<stop offset="0.107334" stop-color="#9EB6E4"/>
<stop offset="0.485577" stop-color="#CBA9CF"/>
<stop offset="0.600503" stop-color="#E1ADAF"/>
<stop offset="1" stop-color="#96B0E1"/>
</linearGradient>
</defs>
</svg>
