<svg width="926" height="710" viewBox="0 0 926 710" fill="none" xmlns="http://www.w3.org/2000/svg">
<g filter="url(#filter0_df_367_3702)">
<path d="M445.984 160.031C348.754 171.546 295.85 238.209 281.551 270.101C266.657 265.585 226.502 262.142 185.036 284.494C143.571 306.847 140.354 357.027 143.929 379.323C127.843 397.951 105.323 455.187 143.929 535.114C182.535 615.042 271.423 635.588 311.042 635.87C332.49 645.184 389.505 662.964 445.984 659.577C502.463 656.191 558.287 642.361 579.139 635.87C609.225 643.208 683.16 649.756 738.209 617.243C793.258 584.73 796.297 524.107 790.935 497.86C810 478.668 836.69 418.779 790.935 332.756C745.18 246.732 650.333 246.111 608.629 256.554C594.927 219.582 543.214 148.516 445.984 160.031Z" fill="url(#paint0_linear_367_3702)"/>
</g>
<g filter="url(#filter1_f_367_3702)">
<ellipse cx="472.924" cy="428.878" rx="264.522" ry="195.585" fill="#FEF0FF" fill-opacity="0.84"/>
</g>
<foreignObject x="115.162" y="151.333" width="708.486" height="516.117"><div xmlns="http://www.w3.org/1999/xhtml" style="backdrop-filter:blur(3.35px);clip-path:url(#bgblur_0_367_3702_clip_path);height:100%;width:100%"></div></foreignObject><g filter="url(#filter2_f_367_3702)" data-figma-bg-blur-radius="6.7">
<path d="M445.984 160.031C348.754 171.546 295.85 238.209 281.551 270.101C266.657 265.585 226.502 262.142 185.036 284.494C143.571 306.847 140.354 357.027 143.929 379.323C127.843 397.951 105.323 455.187 143.929 535.114C182.535 615.042 271.423 635.588 311.042 635.87C332.49 645.184 389.505 662.964 445.984 659.577C502.463 656.191 558.287 642.361 579.139 635.87C609.225 643.208 683.16 649.756 738.209 617.243C793.258 584.73 796.297 524.107 790.935 497.86C810 478.668 836.69 418.779 790.935 332.756C745.18 246.732 650.333 246.111 608.629 256.554C594.927 219.582 543.214 148.516 445.984 160.031Z" fill="url(#paint1_linear_367_3702)"/>
<path d="M445.984 160.031C348.754 171.546 295.85 238.209 281.551 270.101C266.657 265.585 226.502 262.142 185.036 284.494C143.571 306.847 140.354 357.027 143.929 379.323C127.843 397.951 105.323 455.187 143.929 535.114C182.535 615.042 271.423 635.588 311.042 635.87C332.49 645.184 389.505 662.964 445.984 659.577C502.463 656.191 558.287 642.361 579.139 635.87C609.225 643.208 683.16 649.756 738.209 617.243C793.258 584.73 796.297 524.107 790.935 497.86C810 478.668 836.69 418.779 790.935 332.756C745.18 246.732 650.333 246.111 608.629 256.554C594.927 219.582 543.214 148.516 445.984 160.031Z" stroke="#FFFBFB" stroke-opacity="0.5" stroke-width="1.5"/>
</g>
<g filter="url(#filter3_f_367_3702)">
<path d="M779.45 337.436C733.918 271.395 676.089 268.855 645.401 266.314C652.306 269.137 681.461 279.284 718.681 304.415C752.538 327.276 753.386 334.05 766.045 355.217C779.164 377.154 790.137 449.199 783.999 485.607C811.621 450.893 811.672 384.173 779.45 337.436Z" fill="white"/>
</g>
<g filter="url(#filter4_f_367_3702)">
<path d="M131.658 470.22C141.161 510.012 149.471 524.555 169.082 542.336C166.272 539.788 156.337 522.711 151.209 500.848C147.634 485.608 141.379 463.476 141.379 450.894C141.379 429.726 147.748 414.217 157.653 397.617C137.656 409.726 124.933 442.059 131.658 470.22Z" fill="white"/>
</g>
<foreignObject x="42.9225" y="43.1607" width="416.448" height="368.754"><div xmlns="http://www.w3.org/1999/xhtml" style="backdrop-filter:blur(6.8px);clip-path:url(#bgblur_1_367_3702_clip_path);height:100%;width:100%"></div></foreignObject><g filter="url(#filter5_f_367_3702)" data-figma-bg-blur-radius="13.6">
<ellipse cx="100.961" cy="238.361" rx="100.961" ry="238.361" transform="matrix(0.686964 0.726691 -0.762667 0.646792 363.58 0)" fill="#D9D9D9" fill-opacity="0.02"/>
</g>
<g filter="url(#filter6_d_367_3702)">
<path d="M175.195 440.872C153.195 425.672 131.695 443.539 123.695 454.372C109.862 446.205 89.1939 428.371 67.6949 447.872C46.1966 467.372 64.6954 494.372 82.1949 509.872C94.9269 521.149 119.862 538.539 131.695 544.872C141.028 536.205 161.395 517.072 168.195 509.872C182.195 495.048 202.695 459.872 175.195 440.872Z" fill="url(#paint2_linear_367_3702)"/>
</g>
<g filter="url(#filter7_d_367_3702)">
<path d="M828.292 158.172C810.045 137.503 784.06 149.953 773.348 158.762C761.528 147.153 745.273 124.188 718.881 138.269C692.49 152.349 704.29 183.917 717.954 203.761C727.895 218.198 748.535 241.786 758.808 251.066C770.316 244.752 795.482 230.755 804.086 225.271C821.803 213.981 851.099 184.009 828.292 158.172Z" fill="url(#paint3_linear_367_3702)"/>
</g>
<g filter="url(#filter8_d_367_3702)">
<path d="M912.971 520.403C903.281 505.753 885.788 511.321 878.253 515.936C871.819 507.57 863.587 491.647 845.695 498.208C827.803 504.769 832.465 525.729 839.337 539.454C844.337 549.44 855.28 566.142 860.944 572.903C868.76 569.932 885.872 563.316 891.785 560.613C903.957 555.049 925.083 538.716 912.971 520.403Z" fill="url(#paint4_linear_367_3702)"/>
</g>
<g filter="url(#filter9_d_367_3702)">
<path d="M394.25 417.939C383.315 410.331 372.629 419.274 368.653 424.697C361.777 420.609 351.504 411.682 340.819 421.444C330.133 431.205 339.328 444.721 348.026 452.48C354.354 458.125 366.747 466.83 372.629 470C377.268 465.662 387.391 456.084 390.771 452.48C397.729 445.059 407.919 427.45 394.25 417.939Z" fill="#38465C"/>
</g>
<g filter="url(#filter10_d_367_3702)">
<path d="M599.25 417.939C588.315 410.331 577.629 419.274 573.653 424.697C566.777 420.609 556.504 411.682 545.819 421.444C535.133 431.205 544.328 444.721 553.026 452.48C559.354 458.125 571.747 466.83 577.629 470C582.268 465.662 592.391 456.084 595.771 452.48C602.729 445.059 612.919 427.45 599.25 417.939Z" fill="#38465C"/>
</g>
<path d="M426 538C467.5 549.5 523.5 533 544.5 500" stroke="#38465C" stroke-width="11" stroke-linecap="round"/>
<defs>
<filter id="filter0_df_367_3702" x="107.212" y="143.384" width="732.386" height="540.016" filterUnits="userSpaceOnUse" color-interpolation-filters="sRGB">
<feFlood flood-opacity="0" result="BackgroundImageFix"/>
<feColorMatrix in="SourceAlpha" type="matrix" values="0 0 0 0 0 0 0 0 0 0 0 0 0 0 0 0 0 0 127 0" result="hardAlpha"/>
<feOffset dx="4" dy="4"/>
<feGaussianBlur stdDeviation="9.7"/>
<feComposite in2="hardAlpha" operator="out"/>
<feColorMatrix type="matrix" values="0 0 0 0 0.321569 0 0 0 0 0.509804 0 0 0 0 1 0 0 0 0.52 0"/>
<feBlend mode="normal" in2="BackgroundImageFix" result="effect1_dropShadow_367_3702"/>
<feBlend mode="normal" in="SourceGraphic" in2="effect1_dropShadow_367_3702" result="shape"/>
<feGaussianBlur stdDeviation="3.4" result="effect2_foregroundBlur_367_3702"/>
</filter>
<filter id="filter1_f_367_3702" x="123.202" y="148.093" width="699.444" height="561.57" filterUnits="userSpaceOnUse" color-interpolation-filters="sRGB">
<feFlood flood-opacity="0" result="BackgroundImageFix"/>
<feBlend mode="normal" in="SourceGraphic" in2="BackgroundImageFix" result="shape"/>
<feGaussianBlur stdDeviation="42.6" result="effect1_foregroundBlur_367_3702"/>
</filter>
<filter id="filter2_f_367_3702" x="115.162" y="151.333" width="708.486" height="516.117" filterUnits="userSpaceOnUse" color-interpolation-filters="sRGB">
<feFlood flood-opacity="0" result="BackgroundImageFix"/>
<feBlend mode="normal" in="SourceGraphic" in2="BackgroundImageFix" result="shape"/>
<feGaussianBlur stdDeviation="1.2" result="effect1_foregroundBlur_367_3702"/>
</filter>
<clipPath id="bgblur_0_367_3702_clip_path" transform="translate(-115.162 -151.333)"><path d="M445.984 160.031C348.754 171.546 295.85 238.209 281.551 270.101C266.657 265.585 226.502 262.142 185.036 284.494C143.571 306.847 140.354 357.027 143.929 379.323C127.843 397.951 105.323 455.187 143.929 535.114C182.535 615.042 271.423 635.588 311.042 635.87C332.49 645.184 389.505 662.964 445.984 659.577C502.463 656.191 558.287 642.361 579.139 635.87C609.225 643.208 683.16 649.756 738.209 617.243C793.258 584.73 796.297 524.107 790.935 497.86C810 478.668 836.69 418.779 790.935 332.756C745.18 246.732 650.333 246.111 608.629 256.554C594.927 219.582 543.214 148.516 445.984 160.031Z"/>
</clipPath><filter id="filter3_f_367_3702" x="627.601" y="248.514" width="194.397" height="254.892" filterUnits="userSpaceOnUse" color-interpolation-filters="sRGB">
<feFlood flood-opacity="0" result="BackgroundImageFix"/>
<feBlend mode="normal" in="SourceGraphic" in2="BackgroundImageFix" result="shape"/>
<feGaussianBlur stdDeviation="8.9" result="effect1_foregroundBlur_367_3702"/>
</filter>
<filter id="filter4_f_367_3702" x="117.646" y="385.417" width="63.6363" height="169.119" filterUnits="userSpaceOnUse" color-interpolation-filters="sRGB">
<feFlood flood-opacity="0" result="BackgroundImageFix"/>
<feBlend mode="normal" in="SourceGraphic" in2="BackgroundImageFix" result="shape"/>
<feGaussianBlur stdDeviation="6.1" result="effect1_foregroundBlur_367_3702"/>
</filter>
<filter id="filter5_f_367_3702" x="42.9225" y="43.1607" width="416.448" height="368.754" filterUnits="userSpaceOnUse" color-interpolation-filters="sRGB">
<feFlood flood-opacity="0" result="BackgroundImageFix"/>
<feBlend mode="normal" in="SourceGraphic" in2="BackgroundImageFix" result="shape"/>
<feGaussianBlur stdDeviation="6.35" result="effect1_foregroundBlur_367_3702"/>
</filter>
<clipPath id="bgblur_1_367_3702_clip_path" transform="translate(-42.9225 -43.1607)"><ellipse cx="100.961" cy="238.361" rx="100.961" ry="238.361" transform="matrix(0.686964 0.726691 -0.762667 0.646792 363.58 0)"/>
</clipPath><filter id="filter6_d_367_3702" x="56.8" y="433.8" width="141.175" height="120.272" filterUnits="userSpaceOnUse" color-interpolation-filters="sRGB">
<feFlood flood-opacity="0" result="BackgroundImageFix"/>
<feColorMatrix in="SourceAlpha" type="matrix" values="0 0 0 0 0 0 0 0 0 0 0 0 0 0 0 0 0 0 127 0" result="hardAlpha"/>
<feOffset dx="4" dy="4"/>
<feGaussianBlur stdDeviation="2.6"/>
<feComposite in2="hardAlpha" operator="out"/>
<feColorMatrix type="matrix" values="0 0 0 0 1 0 0 0 0 1 0 0 0 0 1 0 0 0 0.3 0"/>
<feBlend mode="normal" in2="BackgroundImageFix" result="effect1_dropShadow_367_3702"/>
<feBlend mode="normal" in="SourceGraphic" in2="effect1_dropShadow_367_3702" result="shape"/>
</filter>
<filter id="filter7_d_367_3702" x="701.931" y="132.639" width="143.903" height="127.627" filterUnits="userSpaceOnUse" color-interpolation-filters="sRGB">
<feFlood flood-opacity="0" result="BackgroundImageFix"/>
<feColorMatrix in="SourceAlpha" type="matrix" values="0 0 0 0 0 0 0 0 0 0 0 0 0 0 0 0 0 0 127 0" result="hardAlpha"/>
<feOffset dx="4" dy="4"/>
<feGaussianBlur stdDeviation="2.6"/>
<feComposite in2="hardAlpha" operator="out"/>
<feColorMatrix type="matrix" values="0 0 0 0 1 0 0 0 0 1 0 0 0 0 1 0 0 0 0.3 0"/>
<feBlend mode="normal" in2="BackgroundImageFix" result="effect1_dropShadow_367_3702"/>
<feBlend mode="normal" in="SourceGraphic" in2="effect1_dropShadow_367_3702" result="shape"/>
</filter>
<filter id="filter8_d_367_3702" x="832.019" y="495.461" width="93.776" height="86.6412" filterUnits="userSpaceOnUse" color-interpolation-filters="sRGB">
<feFlood flood-opacity="0" result="BackgroundImageFix"/>
<feColorMatrix in="SourceAlpha" type="matrix" values="0 0 0 0 0 0 0 0 0 0 0 0 0 0 0 0 0 0 127 0" result="hardAlpha"/>
<feOffset dx="4" dy="4"/>
<feGaussianBlur stdDeviation="2.6"/>
<feComposite in2="hardAlpha" operator="out"/>
<feColorMatrix type="matrix" values="0 0 0 0 1 0 0 0 0 1 0 0 0 0 1 0 0 0 0.3 0"/>
<feBlend mode="normal" in2="BackgroundImageFix" result="effect1_dropShadow_367_3702"/>
<feBlend mode="normal" in="SourceGraphic" in2="effect1_dropShadow_367_3702" result="shape"/>
</filter>
<filter id="filter9_d_367_3702" x="330.8" y="413.8" width="75.4" height="65.4" filterUnits="userSpaceOnUse" color-interpolation-filters="sRGB">
<feFlood flood-opacity="0" result="BackgroundImageFix"/>
<feColorMatrix in="SourceAlpha" type="matrix" values="0 0 0 0 0 0 0 0 0 0 0 0 0 0 0 0 0 0 127 0" result="hardAlpha"/>
<feOffset dy="4"/>
<feGaussianBlur stdDeviation="2.6"/>
<feComposite in2="hardAlpha" operator="out"/>
<feColorMatrix type="matrix" values="0 0 0 0 0.101961 0 0 0 0 0.368627 0 0 0 0 0.647059 0 0 0 0.25 0"/>
<feBlend mode="normal" in2="BackgroundImageFix" result="effect1_dropShadow_367_3702"/>
<feBlend mode="normal" in="SourceGraphic" in2="effect1_dropShadow_367_3702" result="shape"/>
</filter>
<filter id="filter10_d_367_3702" x="535.8" y="413.8" width="75.4" height="65.4" filterUnits="userSpaceOnUse" color-interpolation-filters="sRGB">
<feFlood flood-opacity="0" result="BackgroundImageFix"/>
<feColorMatrix in="SourceAlpha" type="matrix" values="0 0 0 0 0 0 0 0 0 0 0 0 0 0 0 0 0 0 127 0" result="hardAlpha"/>
<feOffset dy="4"/>
<feGaussianBlur stdDeviation="2.6"/>
<feComposite in2="hardAlpha" operator="out"/>
<feColorMatrix type="matrix" values="0 0 0 0 0.101961 0 0 0 0 0.368627 0 0 0 0 0.647059 0 0 0 0.25 0"/>
<feBlend mode="normal" in2="BackgroundImageFix" result="effect1_dropShadow_367_3702"/>
<feBlend mode="normal" in="SourceGraphic" in2="effect1_dropShadow_367_3702" result="shape"/>
</filter>
<linearGradient id="paint0_linear_367_3702" x1="170.098" y1="307.118" x2="827.27" y2="650.375" gradientUnits="userSpaceOnUse">
<stop stop-color="#F7CAF7"/>
<stop offset="0.5" stop-color="#76A6E7"/>
<stop offset="1" stop-color="#AFB6EB"/>
</linearGradient>
<linearGradient id="paint1_linear_367_3702" x1="676.678" y1="290.868" x2="440.222" y2="651.654" gradientUnits="userSpaceOnUse">
<stop stop-color="#F4F5FF" stop-opacity="0.54"/>
<stop offset="0.32199" stop-color="#76A6E7" stop-opacity="0.15"/>
<stop offset="0.729308" stop-color="#9CBEEE" stop-opacity="0.164506"/>
<stop offset="1" stop-color="#F8F9FF" stop-opacity="0"/>
</linearGradient>
<linearGradient id="paint2_linear_367_3702" x1="169.5" y1="443.5" x2="123.388" y2="544.872" gradientUnits="userSpaceOnUse">
<stop stop-color="#FAD1DF"/>
<stop offset="0.384615" stop-color="#F2B5DE"/>
<stop offset="0.834818" stop-color="#AFB7E5"/>
</linearGradient>
<linearGradient id="paint3_linear_367_3702" x1="821.933" y1="159.37" x2="750.74" y2="249.188" gradientUnits="userSpaceOnUse">
<stop stop-color="#FAD1DF"/>
<stop offset="0.384615" stop-color="#F2B5DE"/>
<stop offset="0.834818" stop-color="#AFB7E5"/>
</linearGradient>
<linearGradient id="paint4_linear_367_3702" x1="908.853" y1="520.599" x2="856.011" y2="570.999" gradientUnits="userSpaceOnUse">
<stop stop-color="#FAD1DF"/>
<stop offset="0.384615" stop-color="#F2B5DE"/>
<stop offset="0.834818" stop-color="#AFB7E5"/>
</linearGradient>
</defs>
</svg>
