<svg width="851" height="710" viewBox="0 0 851 710" fill="none" xmlns="http://www.w3.org/2000/svg">
<g filter="url(#filter0_df_367_3738)">
<path d="M445.984 160.03C348.754 171.545 295.85 238.208 281.551 270.1C266.657 265.584 226.502 262.141 185.036 284.493C143.571 306.846 140.354 357.026 143.929 379.322C127.843 397.95 105.323 455.186 143.929 535.113C182.535 615.041 271.423 635.587 311.042 635.869C332.49 645.183 389.505 662.963 445.984 659.576C502.463 656.19 558.287 642.36 579.139 635.869C609.225 643.207 683.16 649.755 738.209 617.242C793.258 584.729 796.297 524.106 790.935 497.859C810 478.667 836.69 418.778 790.935 332.755C745.18 246.731 650.333 246.11 608.629 256.553C594.927 219.581 543.214 148.515 445.984 160.03Z" fill="url(#paint0_linear_367_3738)"/>
</g>
<g filter="url(#filter1_f_367_3738)">
<ellipse cx="472.924" cy="428.878" rx="264.522" ry="195.585" fill="#FEF0FF" fill-opacity="0.84"/>
</g>
<foreignObject x="115.162" y="151.333" width="708.486" height="516.117"><div xmlns="http://www.w3.org/1999/xhtml" style="backdrop-filter:blur(3.35px);clip-path:url(#bgblur_0_367_3738_clip_path);height:100%;width:100%"></div></foreignObject><g filter="url(#filter2_f_367_3738)" data-figma-bg-blur-radius="6.7">
<path d="M445.984 160.03C348.754 171.545 295.85 238.208 281.551 270.1C266.657 265.584 226.502 262.141 185.036 284.493C143.571 306.846 140.354 357.026 143.929 379.322C127.843 397.95 105.323 455.186 143.929 535.113C182.535 615.041 271.423 635.587 311.042 635.869C332.49 645.183 389.505 662.963 445.984 659.576C502.463 656.19 558.287 642.36 579.139 635.869C609.225 643.207 683.16 649.755 738.209 617.242C793.258 584.729 796.297 524.106 790.935 497.859C810 478.667 836.69 418.778 790.935 332.755C745.18 246.731 650.333 246.11 608.629 256.553C594.927 219.581 543.214 148.515 445.984 160.03Z" fill="url(#paint1_linear_367_3738)"/>
<path d="M445.984 160.03C348.754 171.545 295.85 238.208 281.551 270.1C266.657 265.584 226.502 262.141 185.036 284.493C143.571 306.846 140.354 357.026 143.929 379.322C127.843 397.95 105.323 455.186 143.929 535.113C182.535 615.041 271.423 635.587 311.042 635.869C332.49 645.183 389.505 662.963 445.984 659.576C502.463 656.19 558.287 642.36 579.139 635.869C609.225 643.207 683.16 649.755 738.209 617.242C793.258 584.729 796.297 524.106 790.935 497.859C810 478.667 836.69 418.778 790.935 332.755C745.18 246.731 650.333 246.11 608.629 256.553C594.927 219.581 543.214 148.515 445.984 160.03Z" stroke="#FFFBFB" stroke-opacity="0.5" stroke-width="1.5"/>
</g>
<g filter="url(#filter3_d_367_3738)">
<path d="M426.455 488.994C441.945 500.848 479.181 517.443 504.203 488.994" stroke="#293B56" stroke-width="3" stroke-linecap="round"/>
</g>
<g filter="url(#filter4_f_367_3738)">
<path d="M779.45 337.436C733.918 271.395 676.089 268.855 645.401 266.314C652.306 269.137 681.461 279.284 718.681 304.415C752.538 327.276 753.386 334.05 766.045 355.217C779.164 377.154 790.137 449.199 783.999 485.607C811.621 450.893 811.672 384.173 779.45 337.436Z" fill="white"/>
</g>
<g filter="url(#filter5_f_367_3738)">
<path d="M131.658 470.22C141.161 510.012 149.471 524.555 169.082 542.336C166.272 539.788 156.337 522.711 151.209 500.848C147.634 485.608 141.379 463.476 141.379 450.894C141.379 429.726 147.748 414.217 157.653 397.617C137.656 409.726 124.933 442.059 131.658 470.22Z" fill="white"/>
</g>
<foreignObject x="42.9225" y="43.1598" width="416.448" height="368.755"><div xmlns="http://www.w3.org/1999/xhtml" style="backdrop-filter:blur(6.8px);clip-path:url(#bgblur_1_367_3738_clip_path);height:100%;width:100%"></div></foreignObject><g filter="url(#filter6_f_367_3738)" data-figma-bg-blur-radius="13.6">
<ellipse cx="100.961" cy="238.361" rx="100.961" ry="238.361" transform="matrix(0.686964 0.726691 -0.762667 0.646792 363.58 0)" fill="#D9D9D9" fill-opacity="0.02"/>
</g>
<g filter="url(#filter7_d_367_3738)">
<path d="M507.42 163.665C518.22 150.865 530.92 151.332 535.92 153.165C539.254 150.165 548.22 142.166 557.42 134.166C568.92 124.166 593.92 105.166 618.92 92.6658C643.92 80.1658 695.42 66.6658 735.42 78.6658C775.42 90.6658 789.92 116.666 801.42 146.666C812.92 176.666 817.42 212.166 817.42 223.166C817.42 234.166 820.92 237.666 823.92 241.666C826.92 245.666 842.42 251.166 841.42 255.166C840.42 259.166 826.42 264.666 823.92 268.166C821.42 271.666 820.42 289.166 817.42 289.666C814.42 290.166 801.42 276.166 797.92 276.166C794.42 276.166 779.42 281.809 777.42 278.666C775.42 275.523 782.92 262.166 782.92 255.166C782.92 248.166 772.42 241.166 773.92 237.666C775.42 234.166 796.647 237.666 801.42 227.166C803.92 221.666 786.92 205.666 777.42 194.666C767.92 183.666 761.42 175.666 754.42 178.666C748.82 181.066 748.42 244.666 748.92 276.166C751.587 281.166 755.32 293.066 748.92 300.666C740.92 310.166 732.92 310.166 717.42 306.166C701.92 302.166 667.92 284.666 614.42 260.166C560.92 235.666 524.92 206.666 516.92 199.166C508.92 191.666 493.92 179.665 507.42 163.665Z" fill="url(#paint2_linear_367_3738)" shape-rendering="crispEdges"/>
<path d="M507.42 163.665C518.22 150.865 530.92 151.332 535.92 153.165C539.254 150.165 548.22 142.166 557.42 134.166C568.92 124.166 593.92 105.166 618.92 92.6658C643.92 80.1658 695.42 66.6658 735.42 78.6658C775.42 90.6658 789.92 116.666 801.42 146.666C812.92 176.666 817.42 212.166 817.42 223.166C817.42 234.166 820.92 237.666 823.92 241.666C826.92 245.666 842.42 251.166 841.42 255.166C840.42 259.166 826.42 264.666 823.92 268.166C821.42 271.666 820.42 289.166 817.42 289.666C814.42 290.166 801.42 276.166 797.92 276.166C794.42 276.166 779.42 281.809 777.42 278.666C775.42 275.523 782.92 262.166 782.92 255.166C782.92 248.166 772.42 241.166 773.92 237.666C775.42 234.166 796.647 237.666 801.42 227.166C803.92 221.666 786.92 205.666 777.42 194.666C767.92 183.666 761.42 175.666 754.42 178.666C748.82 181.066 748.42 244.666 748.92 276.166C751.587 281.166 755.32 293.066 748.92 300.666C740.92 310.166 732.92 310.166 717.42 306.166C701.92 302.166 667.92 284.666 614.42 260.166C560.92 235.666 524.92 206.666 516.92 199.166C508.92 191.666 493.92 179.665 507.42 163.665Z" stroke="url(#paint3_linear_367_3738)" stroke-width="2" shape-rendering="crispEdges"/>
</g>
<g filter="url(#filter8_df_367_3738)">
<path d="M552.5 172.5C570.5 186.833 614.8 220 648 238C681.2 256 728.5 270.833 748 276" stroke="#B3B4DE" stroke-linecap="round"/>
</g>
<g filter="url(#filter9_di_367_3738)">
<path d="M690.547 134.804C692.013 133.538 694.243 134.887 693.802 136.774L688.247 160.491C688.049 161.335 688.418 162.21 689.159 162.659L709.999 175.27C711.657 176.274 711.062 178.812 709.132 178.974L684.859 181.021C683.995 181.094 683.277 181.714 683.079 182.558L677.525 206.275C677.083 208.162 674.485 208.381 673.734 206.595L664.287 184.142C663.951 183.344 663.139 182.852 662.275 182.925L638.002 184.971C636.071 185.134 635.06 182.731 636.527 181.465L654.961 165.542C655.617 164.975 655.833 164.051 655.497 163.253L646.05 140.8C645.299 139.014 647.272 137.31 648.929 138.313L669.77 150.925C670.511 151.373 671.457 151.294 672.112 150.727L690.547 134.804Z" fill="#A0B5EC"/>
</g>
<g filter="url(#filter10_f_367_3738)">
<path d="M758.042 146.026C747.954 145.151 749.452 166.796 751.462 177.727H758.042C762.976 177.727 766.266 183.74 768.459 184.833C770.214 185.707 792.217 209.975 803 222C792.217 197.04 768.13 146.9 758.042 146.026Z" fill="#BBBEE9"/>
</g>
<path d="M297 409C303.167 417 322.2 433 349 433C375.8 433 389.167 417 392.5 409" stroke="#38465C" stroke-width="11" stroke-linecap="round"/>
<path d="M536.5 409C542.667 417 561.7 433 588.5 433C615.3 433 628.667 417 632 409" stroke="#38465C" stroke-width="11" stroke-linecap="round"/>
<defs>
<filter id="filter0_df_367_3738" x="107.212" y="143.383" width="732.386" height="540.017" filterUnits="userSpaceOnUse" color-interpolation-filters="sRGB">
<feFlood flood-opacity="0" result="BackgroundImageFix"/>
<feColorMatrix in="SourceAlpha" type="matrix" values="0 0 0 0 0 0 0 0 0 0 0 0 0 0 0 0 0 0 127 0" result="hardAlpha"/>
<feOffset dx="4" dy="4"/>
<feGaussianBlur stdDeviation="9.7"/>
<feComposite in2="hardAlpha" operator="out"/>
<feColorMatrix type="matrix" values="0 0 0 0 0.321569 0 0 0 0 0.509804 0 0 0 0 1 0 0 0 0.52 0"/>
<feBlend mode="normal" in2="BackgroundImageFix" result="effect1_dropShadow_367_3738"/>
<feBlend mode="normal" in="SourceGraphic" in2="effect1_dropShadow_367_3738" result="shape"/>
<feGaussianBlur stdDeviation="3.4" result="effect2_foregroundBlur_367_3738"/>
</filter>
<filter id="filter1_f_367_3738" x="123.202" y="148.093" width="699.444" height="561.57" filterUnits="userSpaceOnUse" color-interpolation-filters="sRGB">
<feFlood flood-opacity="0" result="BackgroundImageFix"/>
<feBlend mode="normal" in="SourceGraphic" in2="BackgroundImageFix" result="shape"/>
<feGaussianBlur stdDeviation="42.6" result="effect1_foregroundBlur_367_3738"/>
</filter>
<filter id="filter2_f_367_3738" x="115.162" y="151.333" width="708.486" height="516.117" filterUnits="userSpaceOnUse" color-interpolation-filters="sRGB">
<feFlood flood-opacity="0" result="BackgroundImageFix"/>
<feBlend mode="normal" in="SourceGraphic" in2="BackgroundImageFix" result="shape"/>
<feGaussianBlur stdDeviation="1.2" result="effect1_foregroundBlur_367_3738"/>
</filter>
<clipPath id="bgblur_0_367_3738_clip_path" transform="translate(-115.162 -151.333)"><path d="M445.984 160.03C348.754 171.545 295.85 238.208 281.551 270.1C266.657 265.584 226.502 262.141 185.036 284.493C143.571 306.846 140.354 357.026 143.929 379.322C127.843 397.95 105.323 455.186 143.929 535.113C182.535 615.041 271.423 635.587 311.042 635.869C332.49 645.183 389.505 662.963 445.984 659.576C502.463 656.19 558.287 642.36 579.139 635.869C609.225 643.207 683.16 649.755 738.209 617.242C793.258 584.729 796.297 524.106 790.935 497.859C810 478.667 836.69 418.778 790.935 332.755C745.18 246.731 650.333 246.11 608.629 256.553C594.927 219.581 543.214 148.515 445.984 160.03Z"/>
</clipPath><filter id="filter3_d_367_3738" x="420.955" y="483.494" width="88.748" height="26.707" filterUnits="userSpaceOnUse" color-interpolation-filters="sRGB">
<feFlood flood-opacity="0" result="BackgroundImageFix"/>
<feColorMatrix in="SourceAlpha" type="matrix" values="0 0 0 0 0 0 0 0 0 0 0 0 0 0 0 0 0 0 127 0" result="hardAlpha"/>
<feOffset/>
<feGaussianBlur stdDeviation="2"/>
<feComposite in2="hardAlpha" operator="out"/>
<feColorMatrix type="matrix" values="0 0 0 0 0.321569 0 0 0 0 0.509804 0 0 0 0 1 0 0 0 1 0"/>
<feBlend mode="normal" in2="BackgroundImageFix" result="effect1_dropShadow_367_3738"/>
<feBlend mode="normal" in="SourceGraphic" in2="effect1_dropShadow_367_3738" result="shape"/>
</filter>
<filter id="filter4_f_367_3738" x="627.601" y="248.514" width="194.397" height="254.893" filterUnits="userSpaceOnUse" color-interpolation-filters="sRGB">
<feFlood flood-opacity="0" result="BackgroundImageFix"/>
<feBlend mode="normal" in="SourceGraphic" in2="BackgroundImageFix" result="shape"/>
<feGaussianBlur stdDeviation="8.9" result="effect1_foregroundBlur_367_3738"/>
</filter>
<filter id="filter5_f_367_3738" x="117.646" y="385.417" width="63.6363" height="169.119" filterUnits="userSpaceOnUse" color-interpolation-filters="sRGB">
<feFlood flood-opacity="0" result="BackgroundImageFix"/>
<feBlend mode="normal" in="SourceGraphic" in2="BackgroundImageFix" result="shape"/>
<feGaussianBlur stdDeviation="6.1" result="effect1_foregroundBlur_367_3738"/>
</filter>
<filter id="filter6_f_367_3738" x="42.9225" y="43.1598" width="416.448" height="368.755" filterUnits="userSpaceOnUse" color-interpolation-filters="sRGB">
<feFlood flood-opacity="0" result="BackgroundImageFix"/>
<feBlend mode="normal" in="SourceGraphic" in2="BackgroundImageFix" result="shape"/>
<feGaussianBlur stdDeviation="6.35" result="effect1_foregroundBlur_367_3738"/>
</filter>
<clipPath id="bgblur_1_367_3738_clip_path" transform="translate(-42.9225 -43.1598)"><ellipse cx="100.961" cy="238.361" rx="100.961" ry="238.361" transform="matrix(0.686964 0.726691 -0.762667 0.646792 363.58 0)"/>
</clipPath><filter id="filter7_d_367_3738" x="492.5" y="68.5" width="358.467" height="253.693" filterUnits="userSpaceOnUse" color-interpolation-filters="sRGB">
<feFlood flood-opacity="0" result="BackgroundImageFix"/>
<feColorMatrix in="SourceAlpha" type="matrix" values="0 0 0 0 0 0 0 0 0 0 0 0 0 0 0 0 0 0 127 0" result="hardAlpha"/>
<feOffset dy="4"/>
<feGaussianBlur stdDeviation="4.25"/>
<feComposite in2="hardAlpha" operator="out"/>
<feColorMatrix type="matrix" values="0 0 0 0 0.101961 0 0 0 0 0.368627 0 0 0 0 0.647059 0 0 0 0.15 0"/>
<feBlend mode="normal" in2="BackgroundImageFix" result="effect1_dropShadow_367_3738"/>
<feBlend mode="normal" in="SourceGraphic" in2="effect1_dropShadow_367_3738" result="shape"/>
</filter>
<filter id="filter8_df_367_3738" x="550" y="170" width="200.5" height="110.5" filterUnits="userSpaceOnUse" color-interpolation-filters="sRGB">
<feFlood flood-opacity="0" result="BackgroundImageFix"/>
<feColorMatrix in="SourceAlpha" type="matrix" values="0 0 0 0 0 0 0 0 0 0 0 0 0 0 0 0 0 0 127 0" result="hardAlpha"/>
<feOffset dy="2"/>
<feGaussianBlur stdDeviation="1"/>
<feComposite in2="hardAlpha" operator="out"/>
<feColorMatrix type="matrix" values="0 0 0 0 1 0 0 0 0 1 0 0 0 0 1 0 0 0 0.25 0"/>
<feBlend mode="normal" in2="BackgroundImageFix" result="effect1_dropShadow_367_3738"/>
<feBlend mode="normal" in="SourceGraphic" in2="effect1_dropShadow_367_3738" result="shape"/>
<feGaussianBlur stdDeviation="1" result="effect2_foregroundBlur_367_3738"/>
</filter>
<filter id="filter9_di_367_3738" x="631.828" y="134.309" width="83.1377" height="81.5117" filterUnits="userSpaceOnUse" color-interpolation-filters="sRGB">
<feFlood flood-opacity="0" result="BackgroundImageFix"/>
<feColorMatrix in="SourceAlpha" type="matrix" values="0 0 0 0 0 0 0 0 0 0 0 0 0 0 0 0 0 0 127 0" result="hardAlpha"/>
<feOffset dy="4"/>
<feGaussianBlur stdDeviation="2"/>
<feComposite in2="hardAlpha" operator="out"/>
<feColorMatrix type="matrix" values="0 0 0 0 0.979409 0 0 0 0 0.960456 0 0 0 0 0.960456 0 0 0 0.25 0"/>
<feBlend mode="normal" in2="BackgroundImageFix" result="effect1_dropShadow_367_3738"/>
<feBlend mode="normal" in="SourceGraphic" in2="effect1_dropShadow_367_3738" result="shape"/>
<feColorMatrix in="SourceAlpha" type="matrix" values="0 0 0 0 0 0 0 0 0 0 0 0 0 0 0 0 0 0 127 0" result="hardAlpha"/>
<feOffset dy="2"/>
<feGaussianBlur stdDeviation="1"/>
<feComposite in2="hardAlpha" operator="arithmetic" k2="-1" k3="1"/>
<feColorMatrix type="matrix" values="0 0 0 0 0 0 0 0 0 0 0 0 0 0 0 0 0 0 0.05 0"/>
<feBlend mode="normal" in2="shape" result="effect2_innerShadow_367_3738"/>
</filter>
<filter id="filter10_f_367_3738" x="746" y="142" width="61" height="84" filterUnits="userSpaceOnUse" color-interpolation-filters="sRGB">
<feFlood flood-opacity="0" result="BackgroundImageFix"/>
<feBlend mode="normal" in="SourceGraphic" in2="BackgroundImageFix" result="shape"/>
<feGaussianBlur stdDeviation="2" result="effect1_foregroundBlur_367_3738"/>
</filter>
<linearGradient id="paint0_linear_367_3738" x1="170.098" y1="307.117" x2="827.27" y2="650.374" gradientUnits="userSpaceOnUse">
<stop stop-color="#F7CAF7"/>
<stop offset="0.5" stop-color="#76A6E7"/>
<stop offset="1" stop-color="#AFB6EB"/>
</linearGradient>
<linearGradient id="paint1_linear_367_3738" x1="676.678" y1="290.867" x2="440.222" y2="651.653" gradientUnits="userSpaceOnUse">
<stop stop-color="#F4F5FF" stop-opacity="0.54"/>
<stop offset="0.32199" stop-color="#76A6E7" stop-opacity="0.15"/>
<stop offset="0.729308" stop-color="#9CBEEE" stop-opacity="0.164506"/>
<stop offset="1" stop-color="#F8F9FF" stop-opacity="0"/>
</linearGradient>
<linearGradient id="paint2_linear_367_3738" x1="502" y1="111.377" x2="841.466" y2="271.317" gradientUnits="userSpaceOnUse">
<stop offset="0.107367" stop-color="#E0C8F3"/>
<stop offset="0.476308" stop-color="#B4BEF0"/>
<stop offset="1" stop-color="#E9CBF5"/>
</linearGradient>
<linearGradient id="paint3_linear_367_3738" x1="833.666" y1="74" x2="509.8" y2="308.695" gradientUnits="userSpaceOnUse">
<stop stop-color="white" stop-opacity="0"/>
<stop offset="0.774827" stop-color="white" stop-opacity="0.5"/>
</linearGradient>
</defs>
</svg>
