<svg width="840" height="710" viewBox="0 0 840 710" fill="none" xmlns="http://www.w3.org/2000/svg">
<g filter="url(#filter0_df_373_3921)">
<path d="M445.984 160.032C348.754 171.547 295.85 238.21 281.551 270.102C266.657 265.586 226.502 262.143 185.036 284.495C143.571 306.848 140.354 357.028 143.929 379.324C127.843 397.952 105.323 455.188 143.929 535.115C182.535 615.042 271.423 635.589 311.042 635.871C332.49 645.185 389.505 662.965 445.984 659.578C502.463 656.192 558.287 642.362 579.139 635.871C609.225 643.209 683.16 649.757 738.209 617.244C793.258 584.731 796.297 524.108 790.935 497.861C810 478.669 836.69 418.78 790.935 332.757C745.18 246.733 650.333 246.112 608.629 256.555C594.927 219.583 543.214 148.517 445.984 160.032Z" fill="url(#paint0_linear_373_3921)"/>
</g>
<g filter="url(#filter1_f_373_3921)">
<ellipse cx="472.924" cy="428.878" rx="264.522" ry="195.585" fill="#FEF0FF" fill-opacity="0.84"/>
</g>
<foreignObject x="115.162" y="151.335" width="708.486" height="516.117"><div xmlns="http://www.w3.org/1999/xhtml" style="backdrop-filter:blur(3.35px);clip-path:url(#bgblur_0_373_3921_clip_path);height:100%;width:100%"></div></foreignObject><g filter="url(#filter2_f_373_3921)" data-figma-bg-blur-radius="6.7">
<path d="M445.984 160.032C348.754 171.547 295.85 238.21 281.551 270.102C266.657 265.586 226.502 262.143 185.036 284.495C143.571 306.848 140.354 357.028 143.929 379.324C127.843 397.952 105.323 455.188 143.929 535.115C182.535 615.042 271.423 635.589 311.042 635.871C332.49 645.185 389.505 662.965 445.984 659.578C502.463 656.192 558.287 642.362 579.139 635.871C609.225 643.209 683.16 649.757 738.209 617.244C793.258 584.731 796.297 524.108 790.935 497.861C810 478.669 836.69 418.78 790.935 332.757C745.18 246.733 650.333 246.112 608.629 256.555C594.927 219.583 543.214 148.517 445.984 160.032Z" fill="url(#paint1_linear_373_3921)"/>
<path d="M445.984 160.032C348.754 171.547 295.85 238.21 281.551 270.102C266.657 265.586 226.502 262.143 185.036 284.495C143.571 306.848 140.354 357.028 143.929 379.324C127.843 397.952 105.323 455.188 143.929 535.115C182.535 615.042 271.423 635.589 311.042 635.871C332.49 645.185 389.505 662.965 445.984 659.578C502.463 656.192 558.287 642.362 579.139 635.871C609.225 643.209 683.16 649.757 738.209 617.244C793.258 584.731 796.297 524.108 790.935 497.861C810 478.669 836.69 418.78 790.935 332.757C745.18 246.733 650.333 246.112 608.629 256.555C594.927 219.583 543.214 148.517 445.984 160.032Z" stroke="#FFFBFB" stroke-opacity="0.5" stroke-width="1.5"/>
</g>
<g filter="url(#filter3_d_373_3921)">
<ellipse cx="333.514" cy="434.805" rx="26.8097" ry="25.4007" fill="#293B56"/>
</g>
<g filter="url(#filter4_d_373_3921)">
<ellipse cx="603.398" cy="422.805" rx="26.8097" ry="25.4007" fill="#293B56"/>
</g>
<g filter="url(#filter5_f_373_3921)">
<path d="M779.45 337.436C733.918 271.395 676.089 268.855 645.401 266.314C652.306 269.137 681.461 279.284 718.681 304.415C752.538 327.276 753.386 334.05 766.045 355.217C779.164 377.154 790.137 449.199 783.999 485.607C811.621 450.893 811.672 384.173 779.45 337.436Z" fill="white"/>
</g>
<g filter="url(#filter6_f_373_3921)">
<path d="M131.658 470.22C141.161 510.012 149.471 524.555 169.082 542.336C166.272 539.788 156.337 522.711 151.209 500.848C147.634 485.608 141.379 463.476 141.379 450.894C141.379 429.726 147.748 414.217 157.653 397.617C137.656 409.726 124.933 442.059 131.658 470.22Z" fill="white"/>
</g>
<foreignObject x="42.9225" y="43.1598" width="416.448" height="368.755"><div xmlns="http://www.w3.org/1999/xhtml" style="backdrop-filter:blur(6.8px);clip-path:url(#bgblur_1_373_3921_clip_path);height:100%;width:100%"></div></foreignObject><g filter="url(#filter7_f_373_3921)" data-figma-bg-blur-radius="13.6">
<ellipse cx="100.961" cy="238.361" rx="100.961" ry="238.361" transform="matrix(0.686964 0.726691 -0.762667 0.646792 363.58 0)" fill="#D9D9D9" fill-opacity="0.02"/>
</g>
<path d="M419 519.039C422 510.705 432 494.039 448 494.039C468 494.039 476 513.039 493 513.039C510 513.039 524 487.039 540 486.039C552.8 485.239 570 497.039 577 503.039" stroke="#38465C" stroke-width="9" stroke-linecap="round"/>
<circle cx="672" cy="312.883" r="27" fill="url(#paint2_linear_373_3921)"/>
<path d="M703 268.884C695 276.884 682.667 275.217 677.5 273.384C660 264.383 669 247.883 675 236.884C679.092 229.383 695 220.883 709 214.883C723 208.883 746.5 192.258 731 172.883C717 155.383 695.605 166.8 692 172.883C684 186.383 667 198.383 654 182.883C641 167.383 653.5 154.884 663.5 144.384C673.5 133.884 692 119.884 731 128.884C770 137.884 779 170.384 780 189.384C781 208.384 765.5 230.883 736.5 240.883C711.341 249.558 713 258.884 703 268.884Z" fill="url(#paint3_linear_373_3921)"/>
<defs>
<filter id="filter0_df_373_3921" x="107.212" y="143.385" width="732.386" height="540.017" filterUnits="userSpaceOnUse" color-interpolation-filters="sRGB">
<feFlood flood-opacity="0" result="BackgroundImageFix"/>
<feColorMatrix in="SourceAlpha" type="matrix" values="0 0 0 0 0 0 0 0 0 0 0 0 0 0 0 0 0 0 127 0" result="hardAlpha"/>
<feOffset dx="4" dy="4"/>
<feGaussianBlur stdDeviation="9.7"/>
<feComposite in2="hardAlpha" operator="out"/>
<feColorMatrix type="matrix" values="0 0 0 0 0.321569 0 0 0 0 0.509804 0 0 0 0 1 0 0 0 0.52 0"/>
<feBlend mode="normal" in2="BackgroundImageFix" result="effect1_dropShadow_373_3921"/>
<feBlend mode="normal" in="SourceGraphic" in2="effect1_dropShadow_373_3921" result="shape"/>
<feGaussianBlur stdDeviation="3.4" result="effect2_foregroundBlur_373_3921"/>
</filter>
<filter id="filter1_f_373_3921" x="123.202" y="148.093" width="699.444" height="561.57" filterUnits="userSpaceOnUse" color-interpolation-filters="sRGB">
<feFlood flood-opacity="0" result="BackgroundImageFix"/>
<feBlend mode="normal" in="SourceGraphic" in2="BackgroundImageFix" result="shape"/>
<feGaussianBlur stdDeviation="42.6" result="effect1_foregroundBlur_373_3921"/>
</filter>
<filter id="filter2_f_373_3921" x="115.162" y="151.335" width="708.486" height="516.117" filterUnits="userSpaceOnUse" color-interpolation-filters="sRGB">
<feFlood flood-opacity="0" result="BackgroundImageFix"/>
<feBlend mode="normal" in="SourceGraphic" in2="BackgroundImageFix" result="shape"/>
<feGaussianBlur stdDeviation="1.2" result="effect1_foregroundBlur_373_3921"/>
</filter>
<clipPath id="bgblur_0_373_3921_clip_path" transform="translate(-115.162 -151.335)"><path d="M445.984 160.032C348.754 171.547 295.85 238.21 281.551 270.102C266.657 265.586 226.502 262.143 185.036 284.495C143.571 306.848 140.354 357.028 143.929 379.324C127.843 397.952 105.323 455.188 143.929 535.115C182.535 615.042 271.423 635.589 311.042 635.871C332.49 645.185 389.505 662.965 445.984 659.578C502.463 656.192 558.287 642.362 579.139 635.871C609.225 643.209 683.16 649.757 738.209 617.244C793.258 584.731 796.297 524.108 790.935 497.861C810 478.669 836.69 418.78 790.935 332.757C745.18 246.733 650.333 246.112 608.629 256.555C594.927 219.583 543.214 148.517 445.984 160.032Z"/>
</clipPath><filter id="filter3_d_373_3921" x="297.704" y="398.404" width="73.6191" height="70.8008" filterUnits="userSpaceOnUse" color-interpolation-filters="sRGB">
<feFlood flood-opacity="0" result="BackgroundImageFix"/>
<feColorMatrix in="SourceAlpha" type="matrix" values="0 0 0 0 0 0 0 0 0 0 0 0 0 0 0 0 0 0 127 0" result="hardAlpha"/>
<feOffset dx="1" dy="-1"/>
<feGaussianBlur stdDeviation="5"/>
<feComposite in2="hardAlpha" operator="out"/>
<feColorMatrix type="matrix" values="0 0 0 0 0.321569 0 0 0 0 0.509804 0 0 0 0 1 0 0 0 1 0"/>
<feBlend mode="normal" in2="BackgroundImageFix" result="effect1_dropShadow_373_3921"/>
<feBlend mode="normal" in="SourceGraphic" in2="effect1_dropShadow_373_3921" result="shape"/>
</filter>
<filter id="filter4_d_373_3921" x="567.589" y="386.404" width="73.6191" height="70.8008" filterUnits="userSpaceOnUse" color-interpolation-filters="sRGB">
<feFlood flood-opacity="0" result="BackgroundImageFix"/>
<feColorMatrix in="SourceAlpha" type="matrix" values="0 0 0 0 0 0 0 0 0 0 0 0 0 0 0 0 0 0 127 0" result="hardAlpha"/>
<feOffset dx="1" dy="-1"/>
<feGaussianBlur stdDeviation="5"/>
<feComposite in2="hardAlpha" operator="out"/>
<feColorMatrix type="matrix" values="0 0 0 0 0.321569 0 0 0 0 0.509804 0 0 0 0 1 0 0 0 1 0"/>
<feBlend mode="normal" in2="BackgroundImageFix" result="effect1_dropShadow_373_3921"/>
<feBlend mode="normal" in="SourceGraphic" in2="effect1_dropShadow_373_3921" result="shape"/>
</filter>
<filter id="filter5_f_373_3921" x="627.601" y="248.514" width="194.397" height="254.893" filterUnits="userSpaceOnUse" color-interpolation-filters="sRGB">
<feFlood flood-opacity="0" result="BackgroundImageFix"/>
<feBlend mode="normal" in="SourceGraphic" in2="BackgroundImageFix" result="shape"/>
<feGaussianBlur stdDeviation="8.9" result="effect1_foregroundBlur_373_3921"/>
</filter>
<filter id="filter6_f_373_3921" x="117.646" y="385.417" width="63.6363" height="169.119" filterUnits="userSpaceOnUse" color-interpolation-filters="sRGB">
<feFlood flood-opacity="0" result="BackgroundImageFix"/>
<feBlend mode="normal" in="SourceGraphic" in2="BackgroundImageFix" result="shape"/>
<feGaussianBlur stdDeviation="6.1" result="effect1_foregroundBlur_373_3921"/>
</filter>
<filter id="filter7_f_373_3921" x="42.9225" y="43.1598" width="416.448" height="368.755" filterUnits="userSpaceOnUse" color-interpolation-filters="sRGB">
<feFlood flood-opacity="0" result="BackgroundImageFix"/>
<feBlend mode="normal" in="SourceGraphic" in2="BackgroundImageFix" result="shape"/>
<feGaussianBlur stdDeviation="6.35" result="effect1_foregroundBlur_373_3921"/>
</filter>
<clipPath id="bgblur_1_373_3921_clip_path" transform="translate(-42.9225 -43.1598)"><ellipse cx="100.961" cy="238.361" rx="100.961" ry="238.361" transform="matrix(0.686964 0.726691 -0.762667 0.646792 363.58 0)"/>
</clipPath><linearGradient id="paint0_linear_373_3921" x1="170.098" y1="307.119" x2="827.27" y2="650.376" gradientUnits="userSpaceOnUse">
<stop stop-color="#F7CAF7"/>
<stop offset="0.5" stop-color="#76A6E7"/>
<stop offset="1" stop-color="#AFB6EB"/>
</linearGradient>
<linearGradient id="paint1_linear_373_3921" x1="676.678" y1="290.869" x2="440.222" y2="651.655" gradientUnits="userSpaceOnUse">
<stop stop-color="#F4F5FF" stop-opacity="0.54"/>
<stop offset="0.32199" stop-color="#76A6E7" stop-opacity="0.15"/>
<stop offset="0.729308" stop-color="#9CBEEE" stop-opacity="0.164506"/>
<stop offset="1" stop-color="#F8F9FF" stop-opacity="0"/>
</linearGradient>
<linearGradient id="paint2_linear_373_3921" x1="699" y1="289.803" x2="645" y2="335.963" gradientUnits="userSpaceOnUse">
<stop stop-color="#EBCEF5"/>
<stop offset="1" stop-color="#9CB6ED"/>
</linearGradient>
<linearGradient id="paint3_linear_373_3921" x1="780.045" y1="133.281" x2="648.427" y2="267.62" gradientUnits="userSpaceOnUse">
<stop stop-color="#EBCEF5"/>
<stop offset="1" stop-color="#9CB6ED"/>
</linearGradient>
</defs>
</svg>
