<svg width="1728" height="1168" viewBox="0 0 1728 1168" fill="none" xmlns="http://www.w3.org/2000/svg">
<path d="M1804.28 0.768398C1646.8 379.205 1357.11 323.239 1186.24 222.4C1015.37 121.561 1180.88 101.181 1201.91 139.692C1222.93 178.203 1154.15 239.922 1101.03 218.934C1047.91 197.945 956.831 122.694 877.942 167.434C799.054 212.173 801.777 305.67 780.465 422.29C759.153 538.909 814.777 547.699 908.007 465.134C1001.24 382.569 702.443 445.726 653.78 475.629C605.117 505.531 514.667 538.253 480.194 725.381C452.616 875.083 363.658 996.198 322.627 1038.04C290.282 1076.8 198.293 1156.51 89.093 1165.31C-20.1071 1174.11 -116.074 1068.98 -150.407 1015.31" stroke="#F687E4" stroke-width="4"/>
</svg>
