<svg width="174" height="595" viewBox="0 0 174 595" fill="none" xmlns="http://www.w3.org/2000/svg">
<path d="M5.97571 415.866L4.00213 416.19L5.97571 415.866ZM174.946 594.295C176.011 594.587 177.111 593.961 177.404 592.896C177.697 591.831 177.071 590.731 176.006 590.438L175.476 592.366L174.946 594.295ZM175.476 1.36621L174.016 -0.000466585C136.178 40.4261 86.7985 102.332 50.3126 175.158C13.8329 247.971 -9.84136 331.871 4.00213 416.19L5.97571 415.866L7.94929 415.542C-5.70723 332.362 17.6185 249.345 53.8888 176.95C90.1529 104.567 139.273 42.973 176.936 2.73289L175.476 1.36621ZM5.97571 415.866L4.00213 416.19C24.9044 543.504 126.272 580.914 174.946 594.295L175.476 592.366L176.006 590.438C127.679 577.152 28.449 540.404 7.94929 415.542L5.97571 415.866Z" fill="#1A5EA5"/>
</svg>
