<svg width="652" height="565" viewBox="0 0 652 565" fill="none" xmlns="http://www.w3.org/2000/svg">
<g filter="url(#filter0_df_292_2435)">
<path d="M342.409 122.866C267.76 131.706 227.142 182.887 216.164 207.373C204.729 203.906 173.899 201.262 142.064 218.424C110.228 235.585 107.758 274.112 110.503 291.23C98.1525 305.531 80.8624 349.475 110.503 410.84C140.143 472.205 208.388 487.98 238.806 488.197C255.273 495.347 299.047 508.999 342.409 506.398C385.772 503.798 428.631 493.18 444.64 488.197C467.74 493.831 524.504 498.858 566.769 473.896C609.033 448.933 611.366 402.389 607.25 382.238C621.887 367.503 642.379 321.522 607.25 255.477C572.12 189.431 499.301 188.955 467.282 196.972C456.762 168.586 417.059 114.025 342.409 122.866Z" fill="url(#paint0_linear_292_2435)"/>
</g>
<g filter="url(#filter1_f_292_2435)">
<ellipse cx="363.093" cy="329.276" rx="203.09" ry="150.163" fill="#FEF0FF" fill-opacity="0.84"/>
</g>
<foreignObject x="86.6867" y="114.457" width="547.409" height="399.715"><div xmlns="http://www.w3.org/1999/xhtml" style="backdrop-filter:blur(3.35px);clip-path:url(#bgblur_0_292_2435_clip_path);height:100%;width:100%"></div></foreignObject><g filter="url(#filter2_f_292_2435)" data-figma-bg-blur-radius="6.7">
<path d="M342.409 122.866C267.76 131.706 227.142 182.887 216.164 207.373C204.729 203.906 173.899 201.262 142.064 218.424C110.228 235.585 107.758 274.112 110.503 291.23C98.1525 305.531 80.8624 349.475 110.503 410.84C140.143 472.205 208.388 487.98 238.806 488.197C255.273 495.347 299.047 508.999 342.409 506.398C385.772 503.798 428.631 493.18 444.64 488.197C467.74 493.831 524.504 498.858 566.769 473.896C609.033 448.933 611.366 402.389 607.25 382.238C621.887 367.503 642.379 321.522 607.25 255.477C572.12 189.431 499.301 188.955 467.282 196.972C456.762 168.586 417.059 114.025 342.409 122.866Z" fill="url(#paint1_linear_292_2435)"/>
<path d="M342.409 122.866C267.76 131.706 227.142 182.887 216.164 207.373C204.729 203.906 173.899 201.262 142.064 218.424C110.228 235.585 107.758 274.112 110.503 291.23C98.1525 305.531 80.8624 349.475 110.503 410.84C140.143 472.205 208.388 487.98 238.806 488.197C255.273 495.347 299.047 508.999 342.409 506.398C385.772 503.798 428.631 493.18 444.64 488.197C467.74 493.831 524.504 498.858 566.769 473.896C609.033 448.933 611.366 402.389 607.25 382.238C621.887 367.503 642.379 321.522 607.25 255.477C572.12 189.431 499.301 188.955 467.282 196.972C456.762 168.586 417.059 114.025 342.409 122.866Z" stroke="#FFFBFB" stroke-opacity="0.5" stroke-width="1.5"/>
</g>
<g filter="url(#filter3_d_292_2435)">
<ellipse cx="256.059" cy="333.827" rx="20.5834" ry="19.5017" fill="#293B56"/>
</g>
<g filter="url(#filter4_d_292_2435)">
<ellipse cx="463.266" cy="333.827" rx="20.5834" ry="19.5017" fill="#293B56"/>
</g>
<g filter="url(#filter5_d_292_2435)">
<path d="M327.415 375.431C339.308 384.531 367.896 397.273 387.107 375.431" stroke="#293B56" stroke-width="3" stroke-linecap="round"/>
</g>
<g filter="url(#filter6_f_292_2435)">
<path d="M598.432 259.07C563.474 208.366 519.076 206.416 495.515 204.466C500.816 206.633 523.2 214.423 551.776 233.718C577.77 251.27 578.421 256.47 588.14 272.722C598.213 289.564 606.637 344.878 601.925 372.83C623.132 346.178 623.171 294.954 598.432 259.07Z" fill="white"/>
</g>
<g filter="url(#filter7_f_292_2435)">
<path d="M101.082 361.017C108.378 391.568 114.758 402.734 129.814 416.385C127.657 414.429 120.029 401.318 116.092 384.532C113.348 372.831 108.545 355.839 108.545 346.179C108.545 329.927 113.435 318.02 121.039 305.275C105.687 314.572 95.9188 339.396 101.082 361.017Z" fill="white"/>
</g>
<foreignObject x="29.7955" y="29.9781" width="326.05" height="289.432"><div xmlns="http://www.w3.org/1999/xhtml" style="backdrop-filter:blur(6.8px);clip-path:url(#bgblur_1_292_2435_clip_path);height:100%;width:100%"></div></foreignObject><g filter="url(#filter8_f_292_2435)" data-figma-bg-blur-radius="13.6">
<ellipse cx="77.5138" cy="183.005" rx="77.5138" ry="183.005" transform="matrix(0.686964 0.726691 -0.762667 0.646792 279.143 0)" fill="#D9D9D9" fill-opacity="0.02"/>
</g>
<defs>
<filter id="filter0_df_292_2435" x="78.7367" y="106.508" width="571.31" height="423.614" filterUnits="userSpaceOnUse" color-interpolation-filters="sRGB">
<feFlood flood-opacity="0" result="BackgroundImageFix"/>
<feColorMatrix in="SourceAlpha" type="matrix" values="0 0 0 0 0 0 0 0 0 0 0 0 0 0 0 0 0 0 127 0" result="hardAlpha"/>
<feOffset dx="4" dy="4"/>
<feGaussianBlur stdDeviation="9.7"/>
<feComposite in2="hardAlpha" operator="out"/>
<feColorMatrix type="matrix" values="0 0 0 0 0.321569 0 0 0 0 0.509804 0 0 0 0 1 0 0 0 0.52 0"/>
<feBlend mode="normal" in2="BackgroundImageFix" result="effect1_dropShadow_292_2435"/>
<feBlend mode="normal" in="SourceGraphic" in2="effect1_dropShadow_292_2435" result="shape"/>
<feGaussianBlur stdDeviation="3.4" result="effect2_foregroundBlur_292_2435"/>
</filter>
<filter id="filter1_f_292_2435" x="74.8029" y="93.9133" width="576.58" height="470.725" filterUnits="userSpaceOnUse" color-interpolation-filters="sRGB">
<feFlood flood-opacity="0" result="BackgroundImageFix"/>
<feBlend mode="normal" in="SourceGraphic" in2="BackgroundImageFix" result="shape"/>
<feGaussianBlur stdDeviation="42.6" result="effect1_foregroundBlur_292_2435"/>
</filter>
<filter id="filter2_f_292_2435" x="86.6867" y="114.457" width="547.409" height="399.715" filterUnits="userSpaceOnUse" color-interpolation-filters="sRGB">
<feFlood flood-opacity="0" result="BackgroundImageFix"/>
<feBlend mode="normal" in="SourceGraphic" in2="BackgroundImageFix" result="shape"/>
<feGaussianBlur stdDeviation="1.2" result="effect1_foregroundBlur_292_2435"/>
</filter>
<clipPath id="bgblur_0_292_2435_clip_path" transform="translate(-86.6867 -114.457)"><path d="M342.409 122.866C267.76 131.706 227.142 182.887 216.164 207.373C204.729 203.906 173.899 201.262 142.064 218.424C110.228 235.585 107.758 274.112 110.503 291.23C98.1525 305.531 80.8624 349.475 110.503 410.84C140.143 472.205 208.388 487.98 238.806 488.197C255.273 495.347 299.047 508.999 342.409 506.398C385.772 503.798 428.631 493.18 444.64 488.197C467.74 493.831 524.504 498.858 566.769 473.896C609.033 448.933 611.366 402.389 607.25 382.238C621.887 367.503 642.379 321.522 607.25 255.477C572.12 189.431 499.301 188.955 467.282 196.972C456.762 168.586 417.059 114.025 342.409 122.866Z"/>
</clipPath><filter id="filter3_d_292_2435" x="226.476" y="303.325" width="61.167" height="59.0029" filterUnits="userSpaceOnUse" color-interpolation-filters="sRGB">
<feFlood flood-opacity="0" result="BackgroundImageFix"/>
<feColorMatrix in="SourceAlpha" type="matrix" values="0 0 0 0 0 0 0 0 0 0 0 0 0 0 0 0 0 0 127 0" result="hardAlpha"/>
<feOffset dx="1" dy="-1"/>
<feGaussianBlur stdDeviation="5"/>
<feComposite in2="hardAlpha" operator="out"/>
<feColorMatrix type="matrix" values="0 0 0 0 0.321569 0 0 0 0 0.509804 0 0 0 0 1 0 0 0 1 0"/>
<feBlend mode="normal" in2="BackgroundImageFix" result="effect1_dropShadow_292_2435"/>
<feBlend mode="normal" in="SourceGraphic" in2="effect1_dropShadow_292_2435" result="shape"/>
</filter>
<filter id="filter4_d_292_2435" x="433.683" y="303.325" width="61.167" height="59.0029" filterUnits="userSpaceOnUse" color-interpolation-filters="sRGB">
<feFlood flood-opacity="0" result="BackgroundImageFix"/>
<feColorMatrix in="SourceAlpha" type="matrix" values="0 0 0 0 0 0 0 0 0 0 0 0 0 0 0 0 0 0 127 0" result="hardAlpha"/>
<feOffset dx="1" dy="-1"/>
<feGaussianBlur stdDeviation="5"/>
<feComposite in2="hardAlpha" operator="out"/>
<feColorMatrix type="matrix" values="0 0 0 0 0.321569 0 0 0 0 0.509804 0 0 0 0 1 0 0 0 1 0"/>
<feBlend mode="normal" in2="BackgroundImageFix" result="effect1_dropShadow_292_2435"/>
<feBlend mode="normal" in="SourceGraphic" in2="effect1_dropShadow_292_2435" result="shape"/>
</filter>
<filter id="filter5_d_292_2435" x="321.915" y="369.931" width="70.6924" height="23.0596" filterUnits="userSpaceOnUse" color-interpolation-filters="sRGB">
<feFlood flood-opacity="0" result="BackgroundImageFix"/>
<feColorMatrix in="SourceAlpha" type="matrix" values="0 0 0 0 0 0 0 0 0 0 0 0 0 0 0 0 0 0 127 0" result="hardAlpha"/>
<feOffset/>
<feGaussianBlur stdDeviation="2"/>
<feComposite in2="hardAlpha" operator="out"/>
<feColorMatrix type="matrix" values="0 0 0 0 0.321569 0 0 0 0 0.509804 0 0 0 0 1 0 0 0 1 0"/>
<feBlend mode="normal" in2="BackgroundImageFix" result="effect1_dropShadow_292_2435"/>
<feBlend mode="normal" in="SourceGraphic" in2="effect1_dropShadow_292_2435" result="shape"/>
</filter>
<filter id="filter6_f_292_2435" x="477.715" y="186.666" width="157.518" height="203.964" filterUnits="userSpaceOnUse" color-interpolation-filters="sRGB">
<feFlood flood-opacity="0" result="BackgroundImageFix"/>
<feBlend mode="normal" in="SourceGraphic" in2="BackgroundImageFix" result="shape"/>
<feGaussianBlur stdDeviation="8.9" result="effect1_foregroundBlur_292_2435"/>
</filter>
<filter id="filter7_f_292_2435" x="87.4904" y="293.074" width="54.524" height="135.51" filterUnits="userSpaceOnUse" color-interpolation-filters="sRGB">
<feFlood flood-opacity="0" result="BackgroundImageFix"/>
<feBlend mode="normal" in="SourceGraphic" in2="BackgroundImageFix" result="shape"/>
<feGaussianBlur stdDeviation="6.1" result="effect1_foregroundBlur_292_2435"/>
</filter>
<filter id="filter8_f_292_2435" x="29.7955" y="29.9781" width="326.05" height="289.432" filterUnits="userSpaceOnUse" color-interpolation-filters="sRGB">
<feFlood flood-opacity="0" result="BackgroundImageFix"/>
<feBlend mode="normal" in="SourceGraphic" in2="BackgroundImageFix" result="shape"/>
<feGaussianBlur stdDeviation="6.35" result="effect1_foregroundBlur_292_2435"/>
</filter>
<clipPath id="bgblur_1_292_2435_clip_path" transform="translate(-29.7955 -29.9781)"><ellipse cx="77.5138" cy="183.005" rx="77.5138" ry="183.005" transform="matrix(0.686964 0.726691 -0.762667 0.646792 279.143 0)"/>
</clipPath><linearGradient id="paint0_linear_292_2435" x1="130.595" y1="235.793" x2="635.146" y2="499.333" gradientUnits="userSpaceOnUse">
<stop stop-color="#F7CAF7"/>
<stop offset="0.5" stop-color="#76A6E7"/>
<stop offset="1" stop-color="#AFB6EB"/>
</linearGradient>
<linearGradient id="paint1_linear_292_2435" x1="519.528" y1="223.317" x2="337.985" y2="500.315" gradientUnits="userSpaceOnUse">
<stop stop-color="#F4F5FF" stop-opacity="0.54"/>
<stop offset="0.32199" stop-color="#76A6E7" stop-opacity="0.15"/>
<stop offset="0.729308" stop-color="#9CBEEE" stop-opacity="0.164506"/>
<stop offset="1" stop-color="#F8F9FF" stop-opacity="0"/>
</linearGradient>
</defs>
</svg>
