<svg width="249" height="285" viewBox="0 0 249 285" fill="none" xmlns="http://www.w3.org/2000/svg">
<path d="M72.7458 280.257C68.1864 257.764 53.5966 210.226 31.7119 200.013C9.82712 189.8 -13.8814 192.11 -23 194.542" stroke="#F086AA" stroke-width="6" stroke-linecap="round"/>
<path d="M121.074 280.256C120.162 254.724 108.673 195.635 70.0097 163.537C31.3466 131.44 -4.45924 134.966 -17.5293 140.741" stroke="#F086AA" stroke-width="6" stroke-linecap="round"/>
<path d="M146.606 280.256C145.526 250.042 131.92 180.116 86.1353 142.132C40.3501 104.148 -2.0516 108.32 -17.5293 115.155" stroke="#F086AA" stroke-width="6" stroke-linecap="round"/>
<path d="M170.315 280.256C169.043 244.519 157.674 159.224 103.749 114.296C49.8244 69.369 14.3864 78.7343 -23 84.9751" stroke="#F086AA" stroke-width="6" stroke-linecap="round"/>
<path d="M194.023 280.257C192.631 239.97 180.998 142.146 121.986 91.5003C62.9739 40.8548 2.41974 51.009 -17.5293 60.1213" stroke="#F086AA" stroke-width="6" stroke-linecap="round"/>
<path d="M219.556 276.609C218.164 236.323 201.059 119.907 142.047 69.2612C83.0354 18.6157 4.24396 24.9408 -15.7051 34.0532" stroke="#F086AA" stroke-width="6" stroke-linecap="round"/>
<path d="M246 279.345C244.608 239.059 225.679 109.319 166.667 58.6735C87.3351 -9.41163 6.0672 0.320505 -13.8818 9.43286" stroke="#F086AA" stroke-width="6" stroke-linecap="round"/>
<path d="M98.278 281.168C96.4542 260.195 86.4237 212.596 60.8915 189.981C28.9763 161.714 -8.41016 164.449 -15.7051 165.361" stroke="#F086AA" stroke-width="6" stroke-linecap="round"/>
</svg>
